<svg width="466" height="486" viewBox="0 0 466 486" fill="none" xmlns="http://www.w3.org/2000/svg">
<path fill-rule="evenodd" clip-rule="evenodd" d="M191.002 206L328.002 127L465.002 206L328.002 285L191.002 206Z" fill="#181718"/>
<path fill-rule="evenodd" clip-rule="evenodd" d="M328.002 298L465.002 219.372V206L328.002 284.629V298Z" fill="#343135"/>
<path fill-rule="evenodd" clip-rule="evenodd" d="M191.002 219.372L328.002 298V284.629L191.002 206V219.372Z" fill="#3D383E"/>
<path fill-rule="evenodd" clip-rule="evenodd" d="M191.002 187.987L328.002 109L465.002 187.987L328.002 267L191.002 187.987Z" fill="#474147"/>
<path fill-rule="evenodd" clip-rule="evenodd" d="M328.002 281.66L465.002 202.674V188L328.002 267V281.66Z" fill="#343135"/>
<path fill-rule="evenodd" clip-rule="evenodd" d="M191.002 202.674L328.002 281.66V266.988L191.002 188V202.674Z" fill="#3D383E"/>
<path fill-rule="evenodd" clip-rule="evenodd" d="M434.002 187.484L328.002 126L222.002 187.527L328.002 249L434.002 187.484Z" fill="#010101"/>
<path fill-rule="evenodd" clip-rule="evenodd" d="M428.002 191.004L328.002 133L228.002 191.045L328.002 249.038L428.002 191.004Z" fill="#3A3A3A"/>
<g filter="url(#filter0_d)">
<path fill-rule="evenodd" clip-rule="evenodd" d="M328.002 143.468L245.985 191.022L328.001 238.533L410.019 190.988L328.002 143.468ZM328.002 140L240.002 191.023L328.002 242L416.002 190.987L328.002 140Z" fill="url(#paint0_linear)"/>
</g>
<path fill-rule="evenodd" clip-rule="evenodd" d="M416.002 51L328.002 0V140L416.002 191V51Z" fill="url(#paint1_linear)"/>
<path fill-rule="evenodd" clip-rule="evenodd" d="M240.002 51L328.002 0V140L240.002 191V51Z" fill="url(#paint2_linear)"/>
<path fill-rule="evenodd" clip-rule="evenodd" d="M328.001 89.8435L354.002 74.6021V164.763L328.001 180.004V89.8435Z" fill="#2B7BBC"/>
<path fill-rule="evenodd" clip-rule="evenodd" d="M328.003 180.004L302.001 164.763V74.6021L328.003 89.8435L328.003 180.004Z" fill="#54A8DD"/>
<path fill-rule="evenodd" clip-rule="evenodd" d="M380 180.004L354.002 164.763V74.6021L380 89.8435V180.004Z" fill="#F6B94A"/>
<path fill-rule="evenodd" clip-rule="evenodd" d="M276.003 89.845V180.004L302.001 164.763V74.6021L276.003 89.8435V89.845Z" fill="#F6B94A"/>
<path fill-rule="evenodd" clip-rule="evenodd" d="M250.003 74.6021V164.763L276.003 180.004V89.8435L250.003 74.6021Z" fill="#54A8DD"/>
<path fill-rule="evenodd" clip-rule="evenodd" d="M354.003 164.763L380 180.005L328.003 210.487L276.004 180.005L302.001 164.763L328.002 180.005L354.003 164.763Z" fill="#F0AB3A"/>
<path fill-rule="evenodd" clip-rule="evenodd" d="M406 74.6021V164.763L380 180.004V89.8435L406 74.6021Z" fill="#2B7BBC"/>
<path fill-rule="evenodd" clip-rule="evenodd" d="M354.002 74.6021L328.001 89.8436L302.001 74.6021L276.004 89.8436L250.005 74.6021L302.001 44.1201L328.001 59.3607L354.003 44.1201L406.002 74.6021L380 89.8436L354.002 74.6021Z" fill="#3590CD"/>
<path fill-rule="evenodd" clip-rule="evenodd" d="M328 89.8435L354.001 74.6021V164.763L328 180.004V89.8435Z" fill="url(#paint3_linear)"/>
<path fill-rule="evenodd" clip-rule="evenodd" d="M328.001 180.004L302.001 164.763V74.6021L328.003 89.8435L328.001 180.004Z" fill="url(#paint4_linear)"/>
<path fill-rule="evenodd" clip-rule="evenodd" d="M379.999 180.004L354.001 164.763V74.6021L379.999 89.8435V180.004Z" fill="url(#paint5_linear)"/>
<path fill-rule="evenodd" clip-rule="evenodd" d="M276.002 89.845V180.004L302.001 164.763V74.6021L276.003 89.8435L276.002 89.845Z" fill="url(#paint6_linear)"/>
<path fill-rule="evenodd" clip-rule="evenodd" d="M250.002 74.6021V164.763L276.002 180.004V89.8435L250.002 74.6021Z" fill="url(#paint7_linear)"/>
<path fill-rule="evenodd" clip-rule="evenodd" d="M354.002 164.763L379.999 180.005L328.003 210.487L276.003 180.005L302.001 164.763L328.002 180.005L354.002 164.763Z" fill="url(#paint8_linear)"/>
<path fill-rule="evenodd" clip-rule="evenodd" d="M405.999 74.6021V164.763L379.999 180.004V89.8435L405.999 74.6021Z" fill="url(#paint9_linear)"/>
<path fill-rule="evenodd" clip-rule="evenodd" d="M354.001 74.6021L328 89.8436L302.001 74.6021L276.004 89.8436L250.004 74.6021L302.001 44.1201L328.001 59.3607L354.003 44.1201L406.002 74.6021L380 89.8436L354.001 74.6021Z" fill="url(#paint10_linear)"/>
<path fill-rule="evenodd" clip-rule="evenodd" d="M328.002 102L240.002 51V191L328.002 242V102Z" fill="url(#paint11_linear)"/>
<path fill-rule="evenodd" clip-rule="evenodd" d="M328.002 102L416.002 51V191L328.002 242V102Z" fill="url(#paint12_linear)"/>
<path fill-rule="evenodd" clip-rule="evenodd" d="M10.3889 221.536C10.3889 219.453 10.3889 217.667 10.3889 216.179C10.3889 213.054 12.7736 211.632 14.8256 211.763C18.4481 211.995 19.8688 214.211 21.0984 213.726C22.4399 213.195 26.13 214.012 26.6071 213.726C26.913 213.542 26.386 212.852 26.2593 212.685C25.9744 212.312 24.757 210.163 24.2361 209.665C22.9812 208.465 15.2267 206.707 13.2097 206.918C11.1891 207.131 7.81892 207.979 6.81914 209.665C6.40926 210.355 6.20245 212.348 5.8686 213.054C5.52777 213.777 5.89482 215.379 5.8686 216.193C5.85113 216.717 5.78915 218.795 5.68268 222.429L10.3889 221.536Z" fill="#939393"/>
<path fill-rule="evenodd" clip-rule="evenodd" d="M1.94421 215.712H10.3808L10.3808 321.952H1.94421L1.94421 215.712Z" fill="#939393"/>
<path fill-rule="evenodd" clip-rule="evenodd" d="M110.735 132.464L109.827 265.403L210.614 321.34L210.252 208.013C210.252 208.013 111.475 139.127 111.648 136.351" fill="#E6E6E6"/>
<path fill-rule="evenodd" clip-rule="evenodd" d="M2.15063 318.187L106.124 256.897L210.096 318.187L106.124 379.476L2.15063 318.187Z" fill="#D3D3D5"/>
<path fill-rule="evenodd" clip-rule="evenodd" d="M111.002 321.874V349.001L165.002 318.001V292.001L111.002 321.874Z" fill="url(#paint13_linear)"/>
<path fill-rule="evenodd" clip-rule="evenodd" d="M57.0017 318L111.002 349V324.354L57.0017 293.086V318Z" fill="url(#paint14_linear)"/>
<path fill-rule="evenodd" clip-rule="evenodd" d="M106.776 263.85L57.002 291V294.501C57.002 295.001 57.002 295.001 58.002 295.501L108.002 324.501C111.002 326 111.002 326.001 114.002 324.501L164.002 295.5C165.002 295 165.002 295.001 165.002 294.501V291.43L115.228 263.85C114.059 263.17 112.528 262.828 110.998 262.828C109.468 262.828 107.945 263.17 106.776 263.85Z" fill="url(#paint15_linear)"/>
<path fill-rule="evenodd" clip-rule="evenodd" d="M107.502 261L58.002 289.5C57.233 289.956 57.001 290.403 57.002 291C57.003 291.596 57.235 292.046 58.002 292.5L108.002 321.452C111.002 323.201 111.002 323.2 114.002 321.452L164.002 292.5C164.769 292.046 165.001 291.596 165.002 291C165.003 290.403 164.771 289.956 164.002 289.5L114.502 261C113.335 260.308 112.533 259.5 111.002 259.5C109.472 259.5 108.669 260.308 107.502 261Z" fill="url(#paint16_linear)"/>
<path fill-rule="evenodd" clip-rule="evenodd" d="M109.715 274L137.002 289L110.502 304.5L84.002 289L109.715 274Z" stroke="#D53535" stroke-width="16" stroke-linecap="round" stroke-linejoin="round"/>
<path fill-rule="evenodd" clip-rule="evenodd" d="M110.502 271L137.002 286L110.502 301.5L84.002 286L110.502 271Z" stroke="#FF6161" stroke-width="16" stroke-linecap="round" stroke-linejoin="round"/>
<path fill-rule="evenodd" clip-rule="evenodd" d="M113.913 266.626L123.565 261.715L133.547 267.072L124.623 272.429L113.913 266.626Z" fill="#3A3A3A"/>
<path fill-rule="evenodd" clip-rule="evenodd" d="M124.623 272.429L133.547 267.072V274.215L124.623 279.572V272.429Z" fill="#3E3E3E"/>
<path fill-rule="evenodd" clip-rule="evenodd" d="M113.913 266.625L124.623 272.429V279.572L113.913 273.691V266.625Z" fill="#5D5D5D"/>
<path d="M123.491 265.179C123.491 253.5 143.002 247.114 160.787 246.098C188.502 244.515 194.503 226 194.503 193" stroke="#535353" stroke-width="4" stroke-linecap="round" stroke-linejoin="round"/>
<path d="M125.491 266.179C125.491 254.5 145.002 248.114 162.787 247.098C190.502 245.515 196.502 227 196.502 194" stroke="black" stroke-width="4" stroke-linecap="round" stroke-linejoin="round"/>
<path d="M0.00213623 171.536L0.00213623 179.826L0.00213623 340.527L0.00213623 340.536C0.0965599 341.602 0.90703 342.657 2.32164 343.473L101.342 400.573C104.381 402.326 109.311 402.334 112.355 400.591L210.502 344C214.002 342 214.002 342 214.002 340.176V321.445V321.474L214.002 179.476V171.536L0.00213623 171.536ZM6.00214 317.239L6.00214 215.5C6.00214 211 6.00214 211 12.0021 214.5L95.0021 262.5C101.002 266 101.002 266 101.002 270L101.002 372L6.00214 317.239ZM112.002 270C112.002 265.974 112.002 266 118.002 262.5L203.081 213.322C203.662 212.99 204.216 212.814 204.719 212.772C206.228 212.646 207.002 213.76 207.002 215.766L207.002 317L112.002 372L112.002 270Z" fill="url(#paint17_linear)"/>
<path fill-rule="evenodd" clip-rule="evenodd" d="M101.002 231.5L3.50195 175C0.00239015 173 -0.0169794 173 0.00233018 171.5C0.0144038 170.563 0.00195312 169.5 3.50195 167.5L101.002 111.001C106.502 107.5 106.502 107.501 112.002 111.002L211.726 168.437C213.077 169.216 214.02 169.5 214.002 171.5C213.989 173 214.002 173 208.002 176.5L112.319 231.5C107.002 235 107.002 235 101.002 231.5Z" fill="white"/>
<path d="M31.0022 199L69.0022 220.9V241L31.0022 219.1V199Z" fill="#5B8B89"/>
<path fill-rule="evenodd" clip-rule="evenodd" d="M73.1455 233.164C73.2246 234.357 74.1749 235.72 75.2682 236.207C76.3615 236.694 77.1828 236.12 77.1037 234.926C77.0246 233.731 76.075 232.369 74.9817 231.882C73.8884 231.395 73.0663 231.969 73.1455 233.164Z" fill="#5B8B89"/>
<path fill-rule="evenodd" clip-rule="evenodd" d="M73.1455 240.164C73.2246 241.357 74.1749 242.72 75.2682 243.207C76.3615 243.694 77.1828 243.12 77.1037 241.926C77.0246 240.731 76.075 239.369 74.9817 238.882C73.8884 238.395 73.0663 238.969 73.1455 240.164Z" fill="#5B8B89"/>
<path fill-rule="evenodd" clip-rule="evenodd" d="M73.1455 226.164C73.2246 227.357 74.1749 228.72 75.2682 229.207C76.3615 229.694 77.1828 229.12 77.1037 227.926C77.0246 226.731 76.075 225.369 74.9817 224.882C73.8884 224.395 73.0663 224.969 73.1455 226.164Z" fill="#5B8B89"/>
<path fill-rule="evenodd" clip-rule="evenodd" d="M42.002 165.994V169.9L106.502 207L171.002 169.9V165.994L106.502 132.149L42.002 165.994Z" fill="url(#paint18_linear)"/>
<path fill-rule="evenodd" clip-rule="evenodd" d="M42.002 166.336L106.502 203.437L171.002 166.336L106.502 128.585L42.002 166.336Z" fill="url(#paint19_linear)"/>
<path fill-rule="evenodd" clip-rule="evenodd" d="M42.002 154.411V158.316L106.502 195.416L171.002 158.316V154.411C149.502 143.128 128.002 131.846 106.502 120.565C85.002 131.846 63.502 143.128 42.002 154.411Z" fill="url(#paint20_linear)"/>
<path fill-rule="evenodd" clip-rule="evenodd" d="M42.002 154.753L106.502 191.852L171.002 154.753L106.502 117.001L42.002 154.753Z" fill="url(#paint21_linear)"/>
<path fill-rule="evenodd" clip-rule="evenodd" d="M135.341 466.532C134.624 466.709 133.81 467.026 132.889 467.5C127.012 470.526 125.515 475.298 125.515 480.325C125.515 485.352 128.952 487.252 132.672 485.165L276.34 401.929V385.107L135.341 466.532Z" fill="#E4E4E4"/>
<path fill-rule="evenodd" clip-rule="evenodd" d="M373.002 263C373.002 281.5 373.002 356.932 373.002 356.932C373.002 356.932 374.406 359.2 351.599 371.576C328.793 383.952 301.919 400.475 301.919 400.475C301.919 400.475 286.714 409.025 271.511 400.475C256.306 391.924 204.866 362.758 204.866 362.758C204.866 362.758 201.002 360.779 201.002 356.932C201.002 353.086 201.002 265.465 201.002 265.465C201.002 265.465 201.002 266.156 202.502 267C204.313 268.021 204.08 268.166 209.056 270.96C214.635 274.091 233.496 285.011 274.449 308.523C278.634 310.926 284.002 311 287.002 311C290.002 311 295.502 310.744 300.402 307.953C346.536 281.673 367.047 269.621 369.174 268.29C372.591 266.154 373.002 263.873 373.002 263Z" fill="url(#paint22_linear)"/>
<path d="M132.655 469.036C131.536 469.718 125.812 473.35 125.812 480.72C125.812 483.541 127.069 484.754 128.002 485.6C128.002 485.6 126.828 485.665 68.0017 451C65.8275 449.719 64.8293 447.565 64.8291 445.181C64.8289 443.11 64.8145 440.056 66.5251 437.264C67.4148 435.812 69.0863 434.619 71.0979 433.454C214.76 350.286 214.76 350.286 214.76 350.286L277.002 386L132.655 469.036Z" fill="url(#paint23_linear)"/>
<path fill-rule="evenodd" clip-rule="evenodd" d="M218.002 352.197V296.001L275.002 329.001V385.001L218.002 352.197Z" fill="url(#paint24_linear)"/>
<path fill-rule="evenodd" clip-rule="evenodd" d="M275.002 329.001V385.001L218.002 352.539L266.502 324.151L275.002 329.001Z" fill="url(#paint25_linear)"/>
<path d="M119.951 422.298C118.783 423.034 117.233 422.334 116.029 420.481C114.826 418.628 113.35 417.697 113.85 417.347C119.988 413.046 124.85 410.197 127.029 413.552C129.207 416.906 125.45 418.833 119.951 422.298Z" fill="#FF8885"/>
<ellipse rx="4" ry="2.5" transform="matrix(0.866025 0.5 -0.511893 0.859049 116.921 419.785)" fill="#FF6666"/>
<path d="M117.944 420.117C117.944 420.117 118.202 420.083 118.408 420.426C118.614 420.769 118.459 420.974 118.459 420.974L91.834 436.477L91.319 435.62L117.944 420.117Z" fill="#8E8E8E"/>
<ellipse rx="0.5" ry="0.238712" transform="matrix(0.515038 0.857167 -0.864187 0.503171 91.5618 436.056)" fill="#C1C1C1"/>
<path d="M115.196 418.817C115.196 418.817 115.454 418.783 115.66 419.126C115.866 419.469 115.712 419.675 115.712 419.675L89.0867 435.177L88.5716 434.32L115.196 418.817Z" fill="#8E8E8E"/>
<ellipse rx="0.5" ry="0.238712" transform="matrix(0.515038 0.857167 -0.864187 0.503171 88.8145 434.756)" fill="#C1C1C1"/>
<path d="M168.951 392.298C167.783 393.034 166.233 392.334 165.029 390.481C163.826 388.628 162.35 387.697 162.85 387.347C168.988 383.046 173.85 380.197 176.029 383.552C178.207 386.906 174.45 388.833 168.951 392.298Z" fill="#FF8885"/>
<ellipse rx="4" ry="2.5" transform="matrix(0.866025 0.5 -0.511893 0.859049 165.921 389.785)" fill="#FF6666"/>
<path d="M166.944 390.117C166.944 390.117 167.202 390.083 167.408 390.426C167.614 390.769 167.459 390.974 167.459 390.974L140.834 406.477L140.319 405.62L166.944 390.117Z" fill="#8E8E8E"/>
<ellipse rx="0.5" ry="0.238712" transform="matrix(0.515038 0.857167 -0.864187 0.503171 140.562 406.056)" fill="#C1C1C1"/>
<path d="M164.196 388.817C164.196 388.817 164.454 388.783 164.66 389.126C164.866 389.469 164.712 389.675 164.712 389.675L138.087 405.177L137.572 404.32L164.196 388.817Z" fill="#8E8E8E"/>
<ellipse rx="0.5" ry="0.238712" transform="matrix(0.515038 0.857167 -0.864187 0.503171 137.814 404.756)" fill="#C1C1C1"/>
<path d="M136.95 432.298C135.782 433.034 134.232 432.334 133.029 430.481C131.826 428.628 130.35 427.697 130.85 427.347C136.988 423.046 141.85 420.197 144.028 423.552C146.207 426.906 142.45 428.833 136.95 432.298Z" fill="#C2FF73"/>
<ellipse rx="4" ry="2.5" transform="matrix(0.866025 0.5 -0.511893 0.859049 133.921 429.785)" fill="#98E733"/>
<path d="M134.943 430.117C134.943 430.117 135.201 430.083 135.407 430.426C135.613 430.769 135.458 430.974 135.458 430.974L108.834 446.477L108.319 445.62L134.943 430.117Z" fill="#8E8E8E"/>
<ellipse rx="0.5" ry="0.238712" transform="matrix(0.515038 0.857167 -0.864187 0.503171 108.561 446.056)" fill="#C1C1C1"/>
<path d="M132.196 428.817C132.196 428.817 132.454 428.783 132.66 429.126C132.866 429.469 132.711 429.675 132.711 429.675L106.086 445.177L105.571 444.32L132.196 428.817Z" fill="#8E8E8E"/>
<ellipse rx="0.5" ry="0.238712" transform="matrix(0.515038 0.857167 -0.864187 0.503171 105.814 444.756)" fill="#C1C1C1"/>
<path d="M185.95 402.298C184.782 403.034 183.232 402.334 182.029 400.481C180.826 398.628 179.35 397.697 179.85 397.347C185.988 393.046 190.85 390.197 193.028 393.552C195.207 396.906 191.45 398.833 185.95 402.298Z" fill="#C2FF73"/>
<ellipse rx="4" ry="2.5" transform="matrix(0.866025 0.5 -0.511893 0.859049 182.921 399.785)" fill="#98E733"/>
<path d="M183.943 400.117C183.943 400.117 184.201 400.083 184.407 400.426C184.613 400.769 184.458 400.974 184.458 400.974L157.834 416.477L157.319 415.62L183.943 400.117Z" fill="#8E8E8E"/>
<ellipse rx="0.5" ry="0.238712" transform="matrix(0.515038 0.857167 -0.864187 0.503171 157.561 416.056)" fill="#C1C1C1"/>
<path d="M181.196 398.817C181.196 398.817 181.454 398.783 181.66 399.126C181.866 399.469 181.711 399.675 181.711 399.675L155.086 415.177L154.571 414.32L181.196 398.817Z" fill="#8E8E8E"/>
<ellipse rx="0.5" ry="0.238712" transform="matrix(0.515038 0.857167 -0.864187 0.503171 154.814 414.756)" fill="#C1C1C1"/>
<path d="M153.95 442.298C152.782 443.034 151.232 442.334 150.029 440.481C148.826 438.628 147.35 437.697 147.85 437.347C153.988 433.046 158.85 430.197 161.028 433.552C163.207 436.906 159.45 438.833 153.95 442.298Z" fill="#FFF576"/>
<ellipse rx="4" ry="2.5" transform="matrix(0.866025 0.5 -0.511893 0.859049 150.921 439.785)" fill="#FFE54D"/>
<path d="M151.943 440.117C151.943 440.117 152.201 440.083 152.407 440.426C152.613 440.769 152.458 440.974 152.458 440.974L125.834 456.477L125.319 455.62L151.943 440.117Z" fill="#8E8E8E"/>
<ellipse rx="0.5" ry="0.238712" transform="matrix(0.515038 0.857167 -0.864187 0.503171 125.561 456.056)" fill="#C1C1C1"/>
<path d="M149.196 438.817C149.196 438.817 149.454 438.783 149.66 439.126C149.866 439.469 149.711 439.675 149.711 439.675L123.086 455.177L122.571 454.32L149.196 438.817Z" fill="#8E8E8E"/>
<ellipse rx="0.5" ry="0.238712" transform="matrix(0.515038 0.857167 -0.864187 0.503171 122.814 454.756)" fill="#C1C1C1"/>
<path d="M202.95 412.298C201.782 413.034 200.232 412.334 199.029 410.481C197.826 408.628 196.35 407.697 196.85 407.347C202.988 403.046 207.85 400.197 210.028 403.552C212.207 406.906 208.45 408.833 202.95 412.298Z" fill="#FFF576"/>
<ellipse rx="4" ry="2.5" transform="matrix(0.866025 0.5 -0.511893 0.859049 199.921 409.785)" fill="#FFE54D"/>
<path d="M200.943 410.117C200.943 410.117 201.201 410.083 201.407 410.426C201.613 410.769 201.458 410.974 201.458 410.974L174.834 426.477L174.319 425.62L200.943 410.117Z" fill="#8E8E8E"/>
<ellipse rx="0.5" ry="0.238712" transform="matrix(0.515038 0.857167 -0.864187 0.503171 174.561 426.056)" fill="#C1C1C1"/>
<path d="M198.196 408.817C198.196 408.817 198.454 408.783 198.66 409.126C198.866 409.469 198.711 409.675 198.711 409.675L172.086 425.177L171.571 424.32L198.196 408.817Z" fill="#8E8E8E"/>
<ellipse rx="0.5" ry="0.238712" transform="matrix(0.515038 0.857167 -0.864187 0.503171 171.814 424.756)" fill="#C1C1C1"/>
<path d="M217.951 362.298C216.783 363.034 215.233 362.334 214.029 360.481C212.826 358.628 211.35 357.697 211.85 357.347C217.989 353.046 222.85 350.197 225.029 353.552C227.207 356.906 223.451 358.833 217.951 362.298Z" fill="#FF8885"/>
<ellipse rx="4" ry="2.5" transform="matrix(0.866025 0.5 -0.511893 0.859049 214.922 359.785)" fill="#FF6666"/>
<path d="M215.944 360.117C215.944 360.117 216.202 360.083 216.408 360.426C216.614 360.769 216.459 360.974 216.459 360.974L189.834 376.477L189.319 375.62L215.944 360.117Z" fill="#8E8E8E"/>
<ellipse rx="0.5" ry="0.238712" transform="matrix(0.515038 0.857167 -0.864187 0.503171 189.562 376.056)" fill="#C1C1C1"/>
<path d="M213.197 358.817C213.197 358.817 213.455 358.783 213.661 359.126C213.867 359.469 213.712 359.675 213.712 359.675L187.087 375.177L186.572 374.32L213.197 358.817Z" fill="#8E8E8E"/>
<ellipse rx="0.5" ry="0.238712" transform="matrix(0.515038 0.857167 -0.864187 0.503171 186.815 374.756)" fill="#C1C1C1"/>
<path d="M234.95 372.298C233.782 373.034 232.232 372.334 231.029 370.481C229.826 368.628 228.35 367.697 228.85 367.347C234.988 363.046 239.85 360.197 242.028 363.552C244.207 366.906 240.45 368.833 234.95 372.298Z" fill="#C2FF73"/>
<ellipse rx="4" ry="2.5" transform="matrix(0.866025 0.5 -0.511893 0.859049 231.921 369.785)" fill="#98E733"/>
<path d="M232.944 370.117C232.944 370.117 233.201 370.083 233.407 370.426C233.613 370.769 233.459 370.974 233.459 370.974L206.834 386.477L206.319 385.62L232.944 370.117Z" fill="#8E8E8E"/>
<ellipse rx="0.5" ry="0.238712" transform="matrix(0.515038 0.857167 -0.864187 0.503171 206.561 386.056)" fill="#C1C1C1"/>
<path d="M230.196 368.817C230.196 368.817 230.454 368.783 230.66 369.126C230.866 369.469 230.711 369.675 230.711 369.675L204.086 385.177L203.571 384.32L230.196 368.817Z" fill="#8E8E8E"/>
<ellipse rx="0.5" ry="0.238712" transform="matrix(0.515038 0.857167 -0.864187 0.503171 203.814 384.756)" fill="#C1C1C1"/>
<path d="M251.95 382.298C250.782 383.034 249.232 382.334 248.029 380.481C246.826 378.628 245.35 377.697 245.85 377.347C251.988 373.046 256.85 370.197 259.028 373.552C261.207 376.906 257.45 378.833 251.95 382.298Z" fill="#FFF576"/>
<ellipse rx="4" ry="2.5" transform="matrix(0.866025 0.5 -0.511893 0.859049 248.921 379.785)" fill="#FFE54D"/>
<path d="M249.944 380.117C249.944 380.117 250.201 380.083 250.407 380.426C250.613 380.769 250.459 380.974 250.459 380.974L223.834 396.477L223.319 395.62L249.944 380.117Z" fill="#8E8E8E"/>
<ellipse rx="0.5" ry="0.238712" transform="matrix(0.515038 0.857167 -0.864187 0.503171 223.561 396.056)" fill="#C1C1C1"/>
<path d="M247.196 378.817C247.196 378.817 247.454 378.783 247.66 379.126C247.866 379.469 247.711 379.675 247.711 379.675L221.086 395.177L220.571 394.32L247.196 378.817Z" fill="#8E8E8E"/>
<ellipse rx="0.5" ry="0.238712" transform="matrix(0.515038 0.857167 -0.864187 0.503171 220.814 394.756)" fill="#C1C1C1"/>
<path d="M266.951 332.298C265.783 333.034 264.233 332.334 263.029 330.481C261.826 328.628 260.35 327.697 260.85 327.347C266.989 323.046 271.85 320.197 274.029 323.552C276.207 326.906 272.451 328.833 266.951 332.298Z" fill="#FF8885"/>
<ellipse rx="4" ry="2.5" transform="matrix(0.866025 0.5 -0.511893 0.859049 263.922 329.785)" fill="#FF6666"/>
<path d="M264.944 330.117C264.944 330.117 265.202 330.083 265.408 330.426C265.614 330.769 265.459 330.974 265.459 330.974L238.834 346.477L238.319 345.62L264.944 330.117Z" fill="#8E8E8E"/>
<ellipse rx="0.5" ry="0.238712" transform="matrix(0.515038 0.857167 -0.864187 0.503171 238.562 346.056)" fill="#C1C1C1"/>
<path d="M262.197 328.817C262.197 328.817 262.455 328.783 262.661 329.126C262.867 329.469 262.712 329.675 262.712 329.675L236.087 345.177L235.572 344.32L262.197 328.817Z" fill="#8E8E8E"/>
<ellipse rx="0.5" ry="0.238712" transform="matrix(0.515038 0.857167 -0.864187 0.503171 235.815 344.756)" fill="#C1C1C1"/>
<path d="M283.95 342.298C282.782 343.034 281.232 342.334 280.029 340.481C278.826 338.628 277.35 337.697 277.85 337.347C283.988 333.046 288.85 330.197 291.028 333.552C293.207 336.906 289.45 338.833 283.95 342.298Z" fill="#C2FF73"/>
<ellipse rx="4" ry="2.5" transform="matrix(0.866025 0.5 -0.511893 0.859049 280.921 339.785)" fill="#98E733"/>
<path d="M281.944 340.117C281.944 340.117 282.201 340.083 282.407 340.426C282.613 340.769 282.459 340.974 282.459 340.974L255.834 356.477L255.319 355.62L281.944 340.117Z" fill="#8E8E8E"/>
<ellipse rx="0.5" ry="0.238712" transform="matrix(0.515038 0.857167 -0.864187 0.503171 255.561 356.056)" fill="#C1C1C1"/>
<path d="M279.196 338.817C279.196 338.817 279.454 338.783 279.66 339.126C279.866 339.469 279.711 339.675 279.711 339.675L253.086 355.177L252.571 354.32L279.196 338.817Z" fill="#8E8E8E"/>
<ellipse rx="0.5" ry="0.238712" transform="matrix(0.515038 0.857167 -0.864187 0.503171 252.814 354.756)" fill="#C1C1C1"/>
<path d="M300.95 352.298C299.782 353.034 298.232 352.334 297.029 350.481C295.826 348.628 294.35 347.697 294.85 347.347C300.988 343.046 305.85 340.197 308.028 343.552C310.207 346.906 306.45 348.833 300.95 352.298Z" fill="#FFF576"/>
<ellipse rx="4" ry="2.5" transform="matrix(0.866025 0.5 -0.511893 0.859049 297.921 349.785)" fill="#FFE54D"/>
<path d="M298.944 350.117C298.944 350.117 299.201 350.083 299.407 350.426C299.613 350.769 299.459 350.974 299.459 350.974L272.834 366.477L272.319 365.62L298.944 350.117Z" fill="#8E8E8E"/>
<ellipse rx="0.5" ry="0.238712" transform="matrix(0.515038 0.857167 -0.864187 0.503171 272.561 366.056)" fill="#C1C1C1"/>
<path d="M296.196 348.817C296.196 348.817 296.454 348.783 296.66 349.126C296.866 349.469 296.711 349.675 296.711 349.675L270.086 365.177L269.571 364.32L296.196 348.817Z" fill="#8E8E8E"/>
<ellipse rx="0.5" ry="0.238712" transform="matrix(0.515038 0.857167 -0.864187 0.503171 269.814 364.756)" fill="#C1C1C1"/>
<path d="M315.951 302.298C314.783 303.034 313.232 302.334 312.029 300.481C310.826 298.628 309.35 297.697 309.85 297.347C315.988 293.046 320.85 290.197 323.029 293.552C325.207 296.906 321.45 298.833 315.951 302.298Z" fill="#FF8885"/>
<ellipse rx="4" ry="2.5" transform="matrix(0.866025 0.5 -0.511893 0.859049 312.922 299.785)" fill="#FF6666"/>
<path d="M313.944 300.117C313.944 300.117 314.202 300.083 314.408 300.426C314.614 300.769 314.459 300.974 314.459 300.974L287.834 316.477L287.319 315.62L313.944 300.117Z" fill="#8E8E8E"/>
<ellipse rx="0.5" ry="0.238712" transform="matrix(0.515038 0.857167 -0.864187 0.503171 287.562 316.056)" fill="#C1C1C1"/>
<path d="M311.197 298.817C311.197 298.817 311.454 298.783 311.66 299.126C311.866 299.469 311.712 299.675 311.712 299.675L285.087 315.177L284.572 314.32L311.197 298.817Z" fill="#8E8E8E"/>
<ellipse rx="0.5" ry="0.238712" transform="matrix(0.515038 0.857167 -0.864187 0.503171 284.815 314.756)" fill="#C1C1C1"/>
<path d="M332.95 312.298C331.782 313.034 330.232 312.334 329.029 310.481C327.826 308.628 326.35 307.697 326.85 307.347C332.988 303.046 337.85 300.197 340.028 303.552C342.207 306.906 338.45 308.833 332.95 312.298Z" fill="#C2FF73"/>
<ellipse rx="4" ry="2.5" transform="matrix(0.866025 0.5 -0.511893 0.859049 329.921 309.785)" fill="#98E733"/>
<path d="M330.943 310.117C330.943 310.117 331.201 310.083 331.407 310.426C331.613 310.769 331.458 310.974 331.458 310.974L304.834 326.477L304.319 325.62L330.943 310.117Z" fill="#8E8E8E"/>
<ellipse rx="0.5" ry="0.238712" transform="matrix(0.515038 0.857167 -0.864187 0.503171 304.561 326.056)" fill="#C1C1C1"/>
<path d="M328.196 308.817C328.196 308.817 328.454 308.783 328.66 309.126C328.866 309.469 328.711 309.675 328.711 309.675L302.086 325.177L301.571 324.32L328.196 308.817Z" fill="#8E8E8E"/>
<ellipse rx="0.5" ry="0.238712" transform="matrix(0.515038 0.857167 -0.864187 0.503171 301.814 324.756)" fill="#C1C1C1"/>
<path d="M349.95 322.298C348.782 323.034 347.232 322.334 346.029 320.481C344.826 318.628 343.35 317.697 343.85 317.347C349.988 313.046 354.85 310.197 357.028 313.552C359.207 316.906 355.45 318.833 349.95 322.298Z" fill="#FFF576"/>
<ellipse rx="4" ry="2.5" transform="matrix(0.866025 0.5 -0.511893 0.859049 346.921 319.785)" fill="#FFE54D"/>
<path d="M347.943 320.117C347.943 320.117 348.201 320.083 348.407 320.426C348.613 320.769 348.458 320.974 348.458 320.974L321.834 336.477L321.319 335.62L347.943 320.117Z" fill="#8E8E8E"/>
<ellipse rx="0.5" ry="0.238712" transform="matrix(0.515038 0.857167 -0.864187 0.503171 321.561 336.056)" fill="#C1C1C1"/>
<path d="M345.196 318.817C345.196 318.817 345.454 318.783 345.66 319.126C345.866 319.469 345.711 319.675 345.711 319.675L319.086 335.177L318.571 334.32L345.196 318.817Z" fill="#8E8E8E"/>
<ellipse rx="0.5" ry="0.238712" transform="matrix(0.515038 0.857167 -0.864187 0.503171 318.814 334.756)" fill="#C1C1C1"/>
<path fill-rule="evenodd" clip-rule="evenodd" d="M373.002 263.001C373.002 275.001 373.002 356.933 373.002 356.933C373.002 356.933 374.406 359.201 351.599 371.577C328.793 383.953 301.919 400.476 301.919 400.476C301.919 400.476 286.714 409.026 271.51 400.476C256.306 391.925 280.002 389.001 280.002 389.001C280.002 388.461 279.502 383.001 275.002 385.001C275.002 385.001 275.002 329.501 275.002 329.001C274.254 328.44 266.002 323.881 266.002 323.881L275.002 308.851C279.187 311.253 284.001 311.001 287.001 311.001C290.001 311.001 295.501 310.745 300.402 307.954C346.536 281.674 367.047 269.622 369.174 268.291C372.591 266.155 373.002 265.001 373.002 263.001Z" fill="url(#paint26_linear)"/>
<path fill-rule="evenodd" clip-rule="evenodd" d="M314.002 392.645L339.883 407.607V364.349L329.31 358.09L314.002 318.322V392.645Z" fill="#B7B5BD"/>
<path fill-rule="evenodd" clip-rule="evenodd" d="M339.883 407.608L379.151 385.376V342.429L339.883 364.661V407.608Z" fill="#F1F1F1"/>
<path fill-rule="evenodd" clip-rule="evenodd" d="M368.642 335.492L353.427 296L314.002 318.238L329.26 357.73L339.883 364.751L379.151 342.49L368.642 335.492Z" fill="url(#paint27_linear)"/>
<path fill-rule="evenodd" clip-rule="evenodd" d="M319.356 322.714L353.456 303.143L364.871 333.19L330.536 352.25L319.356 322.714Z" fill="url(#paint28_linear)" fill-opacity="0.64"/>
<path fill-rule="evenodd" clip-rule="evenodd" d="M321.141 323.606L355.241 304.036L366.656 334.082L332.321 353.143L321.141 323.606Z" fill="url(#paint29_linear)" fill-opacity="0.64"/>
<path d="M329.173 343.322L330.819 334.876L334.235 335.674L334.893 326.947L341.119 331.789L342.227 329.261L348.323 331.789L347.788 320.891C347.788 320.891 352.084 323.838 352.084 323.014C352.084 322.19 351.315 313.858 351.315 313.858L362.194 327.052V323.014" stroke="white"/>
<path fill-rule="evenodd" clip-rule="evenodd" d="M333.635 351.357L335.281 342.911L338.697 343.709L339.355 334.982L345.581 339.824L346.689 337.296L352.786 339.824L352.25 328.926C352.25 328.926 356.547 331.873 356.547 331.049C356.547 330.225 355.777 321.893 355.777 321.893L366.656 333.301" fill="#C3C4EB" fill-opacity="0.854021"/>
<path fill-rule="evenodd" clip-rule="evenodd" d="M302.391 221.578C292.944 216.139 281.299 216.139 271.852 221.578L203.689 260.827C200.106 262.89 200.106 268.039 203.689 270.102L271.852 309.351C281.299 314.79 292.944 314.79 302.391 309.351L369.002 271C372.502 269 373.002 268 373.002 264.5C373.002 263 372.237 261.796 370.554 260.827L302.391 221.578Z" fill="url(#paint30_linear)"/>
<path fill-rule="evenodd" clip-rule="evenodd" d="M231.002 264L287.002 296.5L343.002 264V254L287.002 221.5L231.002 254V264Z" fill="url(#paint31_linear)"/>
<path fill-rule="evenodd" clip-rule="evenodd" d="M231.002 161V254L287.002 286.5L343.002 254V161H231.002Z" fill="url(#paint32_linear)"/>
<path fill-rule="evenodd" clip-rule="evenodd" d="M231.002 249L287.002 216.5L343.002 249L287.002 281.5L231.002 249Z" fill="url(#paint33_linear)"/>
<defs>
<filter id="filter0_d" x="234.002" y="134" width="188" height="114" filterUnits="userSpaceOnUse" color-interpolation-filters="sRGB">
<feFlood flood-opacity="0" result="BackgroundImageFix"/>
<feColorMatrix in="SourceAlpha" type="matrix" values="0 0 0 0 0 0 0 0 0 0 0 0 0 0 0 0 0 0 127 0"/>
<feOffset/>
<feGaussianBlur stdDeviation="3"/>
<feColorMatrix type="matrix" values="0 0 0 0 1 0 0 0 0 1 0 0 0 0 1 0 0 0 0.85 0"/>
<feBlend mode="normal" in2="BackgroundImageFix" result="effect1_dropShadow"/>
<feBlend mode="normal" in="SourceGraphic" in2="effect1_dropShadow" result="shape"/>
</filter>
<linearGradient id="paint0_linear" x1="328.002" y1="242" x2="328.002" y2="140" gradientUnits="userSpaceOnUse">
<stop stop-color="white" stop-opacity="0.9"/>
<stop offset="1" stop-color="white" stop-opacity="0.6"/>
</linearGradient>
<linearGradient id="paint1_linear" x1="343.296" y1="172.784" x2="343.296" y2="9.10276" gradientUnits="userSpaceOnUse">
<stop stop-color="white" stop-opacity="0.75"/>
<stop offset="0.193" stop-color="white" stop-opacity="0.531"/>
<stop offset="0.387" stop-color="white" stop-opacity="0.342"/>
<stop offset="0.569" stop-color="white" stop-opacity="0.193"/>
<stop offset="0.738" stop-color="white" stop-opacity="0.087"/>
<stop offset="0.886" stop-color="white" stop-opacity="0.023"/>
<stop offset="1" stop-color="white" stop-opacity="0"/>
</linearGradient>
<linearGradient id="paint2_linear" x1="312.708" y1="172.784" x2="312.708" y2="9.10276" gradientUnits="userSpaceOnUse">
<stop stop-color="white" stop-opacity="0.75"/>
<stop offset="0.193" stop-color="white" stop-opacity="0.531"/>
<stop offset="0.387" stop-color="white" stop-opacity="0.342"/>
<stop offset="0.569" stop-color="white" stop-opacity="0.193"/>
<stop offset="0.738" stop-color="white" stop-opacity="0.087"/>
<stop offset="0.886" stop-color="white" stop-opacity="0.023"/>
<stop offset="1" stop-color="white" stop-opacity="0"/>
</linearGradient>
<linearGradient id="paint3_linear" x1="366.265" y1="152.522" x2="312.87" y2="149.279" gradientUnits="userSpaceOnUse">
<stop stop-color="white" stop-opacity="0.25"/>
<stop offset="0.109" stop-color="white" stop-opacity="0.163"/>
<stop offset="0.241" stop-color="white" stop-opacity="0.091"/>
<stop offset="0.397" stop-color="white" stop-opacity="0.039"/>
<stop offset="0.598" stop-color="white" stop-opacity="0.01"/>
<stop offset="1" stop-color="white" stop-opacity="0"/>
</linearGradient>
<linearGradient id="paint4_linear" x1="293.091" y1="158.537" x2="341.962" y2="154.297" gradientUnits="userSpaceOnUse">
<stop stop-color="white" stop-opacity="0.25"/>
<stop offset="0.109" stop-color="white" stop-opacity="0.163"/>
<stop offset="0.241" stop-color="white" stop-opacity="0.091"/>
<stop offset="0.397" stop-color="white" stop-opacity="0.039"/>
<stop offset="0.598" stop-color="white" stop-opacity="0.01"/>
<stop offset="1" stop-color="white" stop-opacity="0"/>
</linearGradient>
<linearGradient id="paint5_linear" x1="345.092" y1="158.536" x2="393.959" y2="154.297" gradientUnits="userSpaceOnUse">
<stop stop-color="white" stop-opacity="0.25"/>
<stop offset="0.109" stop-color="white" stop-opacity="0.163"/>
<stop offset="0.241" stop-color="white" stop-opacity="0.091"/>
<stop offset="0.397" stop-color="white" stop-opacity="0.039"/>
<stop offset="0.598" stop-color="white" stop-opacity="0.01"/>
<stop offset="1" stop-color="white" stop-opacity="0"/>
</linearGradient>
<linearGradient id="paint6_linear" x1="314.265" y1="152.521" x2="260.871" y2="149.278" gradientUnits="userSpaceOnUse">
<stop stop-color="white" stop-opacity="0.25"/>
<stop offset="0.109" stop-color="white" stop-opacity="0.163"/>
<stop offset="0.241" stop-color="white" stop-opacity="0.091"/>
<stop offset="0.397" stop-color="white" stop-opacity="0.039"/>
<stop offset="0.598" stop-color="white" stop-opacity="0.01"/>
<stop offset="1" stop-color="white" stop-opacity="0"/>
</linearGradient>
<linearGradient id="paint7_linear" x1="241.093" y1="158.536" x2="289.962" y2="154.297" gradientUnits="userSpaceOnUse">
<stop stop-color="white" stop-opacity="0.25"/>
<stop offset="0.109" stop-color="white" stop-opacity="0.163"/>
<stop offset="0.241" stop-color="white" stop-opacity="0.091"/>
<stop offset="0.397" stop-color="white" stop-opacity="0.039"/>
<stop offset="0.598" stop-color="white" stop-opacity="0.01"/>
<stop offset="1" stop-color="white" stop-opacity="0"/>
</linearGradient>
<linearGradient id="paint8_linear" x1="276.003" y1="187.625" x2="379.999" y2="187.625" gradientUnits="userSpaceOnUse">
<stop stop-color="white" stop-opacity="0.25"/>
<stop offset="0.242" stop-color="white" stop-opacity="0.212"/>
<stop offset="0.648" stop-color="white" stop-opacity="0.109"/>
<stop offset="1" stop-color="white" stop-opacity="0"/>
</linearGradient>
<linearGradient id="paint9_linear" x1="418.263" y1="152.521" x2="364.869" y2="149.278" gradientUnits="userSpaceOnUse">
<stop stop-color="white" stop-opacity="0.25"/>
<stop offset="0.109" stop-color="white" stop-opacity="0.163"/>
<stop offset="0.241" stop-color="white" stop-opacity="0.091"/>
<stop offset="0.397" stop-color="white" stop-opacity="0.039"/>
<stop offset="0.598" stop-color="white" stop-opacity="0.01"/>
<stop offset="1" stop-color="white" stop-opacity="0"/>
</linearGradient>
<linearGradient id="paint10_linear" x1="328.001" y1="89.8436" x2="328.001" y2="44.1201" gradientUnits="userSpaceOnUse">
<stop stop-color="white" stop-opacity="0.25"/>
<stop offset="0.109" stop-color="white" stop-opacity="0.163"/>
<stop offset="0.241" stop-color="white" stop-opacity="0.091"/>
<stop offset="0.397" stop-color="white" stop-opacity="0.039"/>
<stop offset="0.598" stop-color="white" stop-opacity="0.01"/>
<stop offset="1" stop-color="white" stop-opacity="0"/>
</linearGradient>
<linearGradient id="paint11_linear" x1="255.296" y1="223.784" x2="255.296" y2="60.1028" gradientUnits="userSpaceOnUse">
<stop stop-color="white" stop-opacity="0.75"/>
<stop offset="0.193" stop-color="white" stop-opacity="0.531"/>
<stop offset="0.387" stop-color="white" stop-opacity="0.342"/>
<stop offset="0.569" stop-color="white" stop-opacity="0.193"/>
<stop offset="0.738" stop-color="white" stop-opacity="0.087"/>
<stop offset="0.886" stop-color="white" stop-opacity="0.023"/>
<stop offset="1" stop-color="white" stop-opacity="0"/>
</linearGradient>
<linearGradient id="paint12_linear" x1="400.708" y1="223.784" x2="400.708" y2="60.1028" gradientUnits="userSpaceOnUse">
<stop stop-color="white" stop-opacity="0.75"/>
<stop offset="0.193" stop-color="white" stop-opacity="0.531"/>
<stop offset="0.387" stop-color="white" stop-opacity="0.342"/>
<stop offset="0.569" stop-color="white" stop-opacity="0.193"/>
<stop offset="0.738" stop-color="white" stop-opacity="0.087"/>
<stop offset="0.886" stop-color="white" stop-opacity="0.023"/>
<stop offset="1" stop-color="white" stop-opacity="0"/>
</linearGradient>
<linearGradient id="paint13_linear" x1="136.315" y1="332.48" x2="126.56" y2="312.666" gradientUnits="userSpaceOnUse">
<stop stop-color="white"/>
<stop offset="1" stop-color="white"/>
</linearGradient>
<linearGradient id="paint14_linear" x1="78.078" y1="331.556" x2="89.1404" y2="312.219" gradientUnits="userSpaceOnUse">
<stop stop-color="white"/>
<stop offset="1" stop-color="white"/>
</linearGradient>
<linearGradient id="paint15_linear" x1="57.0018" y1="293.827" x2="165.003" y2="293.827" gradientUnits="userSpaceOnUse">
<stop stop-color="#EBA251"/>
<stop offset="1" stop-color="#FF971C"/>
</linearGradient>
<linearGradient id="paint16_linear" x1="83.1877" y1="274.519" x2="111.205" y2="323.328" gradientUnits="userSpaceOnUse">
<stop stop-color="#FFC585"/>
<stop offset="0.943867" stop-color="#FDAC4E"/>
<stop offset="1" stop-color="#FDAC4E"/>
</linearGradient>
<linearGradient id="paint17_linear" x1="0.00232858" y1="286.714" x2="214.002" y2="286.714" gradientUnits="userSpaceOnUse">
<stop stop-color="#EFF6FF"/>
<stop offset="0.970894" stop-color="#FCFBFB"/>
<stop offset="1" stop-color="#FCFBFB"/>
</linearGradient>
<linearGradient id="paint18_linear" x1="42.002" y1="169.574" x2="171.002" y2="169.574" gradientUnits="userSpaceOnUse">
<stop stop-color="#FF4061"/>
<stop offset="0.00470773" stop-color="#FF4061"/>
<stop offset="1" stop-color="#FF9749"/>
</linearGradient>
<linearGradient id="paint19_linear" x1="42.002" y1="166.01" x2="171.002" y2="166.01" gradientUnits="userSpaceOnUse">
<stop stop-color="#FF6161"/>
<stop offset="0.00470773" stop-color="#FF6161"/>
<stop offset="1" stop-color="#FFAE49"/>
</linearGradient>
<linearGradient id="paint20_linear" x1="42.002" y1="157.99" x2="171.002" y2="157.99" gradientUnits="userSpaceOnUse">
<stop stop-color="#FF4061"/>
<stop offset="0.00470773" stop-color="#FF4061"/>
<stop offset="1" stop-color="#FF9749"/>
</linearGradient>
<linearGradient id="paint21_linear" x1="42.002" y1="154.426" x2="171.002" y2="154.426" gradientUnits="userSpaceOnUse">
<stop stop-color="#FF6161"/>
<stop offset="0.00470773" stop-color="#FF6161"/>
<stop offset="1" stop-color="#FFAE49"/>
</linearGradient>
<linearGradient id="paint22_linear" x1="303.833" y1="271.098" x2="247.494" y2="366.024" gradientUnits="userSpaceOnUse">
<stop stop-color="#DBD8E6"/>
<stop offset="1" stop-color="#E3E3E3"/>
</linearGradient>
<linearGradient id="paint23_linear" x1="217.161" y1="362.275" x2="199.07" y2="410.293" gradientUnits="userSpaceOnUse">
<stop stop-color="#FDFDFD"/>
<stop offset="1" stop-color="white"/>
</linearGradient>
<linearGradient id="paint24_linear" x1="208.437" y1="361.269" x2="269.328" y2="366.789" gradientUnits="userSpaceOnUse">
<stop stop-color="#CCCCCC"/>
<stop offset="1" stop-color="#9C9C9C"/>
</linearGradient>
<linearGradient id="paint25_linear" x1="275.002" y1="327" x2="255.413" y2="373.113" gradientUnits="userSpaceOnUse">
<stop stop-color="#ECECEC"/>
<stop offset="1" stop-color="white"/>
</linearGradient>
<linearGradient id="paint26_linear" x1="303.833" y1="271.099" x2="247.494" y2="366.025" gradientUnits="userSpaceOnUse">
<stop stop-color="#DBD8E6"/>
<stop offset="1" stop-color="#E3E3E3"/>
</linearGradient>
<linearGradient id="paint27_linear" x1="314.002" y1="296" x2="314.002" y2="364.751" gradientUnits="userSpaceOnUse">
<stop stop-color="white"/>
<stop offset="1" stop-color="white"/>
</linearGradient>
<linearGradient id="paint28_linear" x1="319.356" y1="303.143" x2="319.356" y2="352.25" gradientUnits="userSpaceOnUse">
<stop stop-color="#4198B2"/>
<stop offset="1" stop-color="#4096B3"/>
</linearGradient>
<linearGradient id="paint29_linear" x1="325.406" y1="319.451" x2="340.829" y2="350.516" gradientUnits="userSpaceOnUse">
<stop stop-color="white"/>
<stop offset="1" stop-color="#F0959A"/>
</linearGradient>
<linearGradient id="paint30_linear" x1="319.275" y1="220.295" x2="297.779" y2="328.135" gradientUnits="userSpaceOnUse">
<stop stop-color="#F9F9F9"/>
<stop offset="1" stop-color="white"/>
</linearGradient>
<linearGradient id="paint31_linear" x1="231.002" y1="298.774" x2="343.002" y2="298.774" gradientUnits="userSpaceOnUse">
<stop stop-color="#FF6161"/>
<stop offset="1" stop-color="#F1D0A0"/>
</linearGradient>
<linearGradient id="paint32_linear" x1="212.408" y1="161" x2="212.408" y2="325.126" gradientUnits="userSpaceOnUse">
<stop stop-color="white" stop-opacity="0.01"/>
<stop offset="0.351582" stop-color="#D4E6F0" stop-opacity="0.213822"/>
<stop offset="1" stop-color="#355CB9"/>
</linearGradient>
<linearGradient id="paint33_linear" x1="231.502" y1="220.822" x2="231.502" y2="279.75" gradientUnits="userSpaceOnUse">
<stop stop-color="#383757" stop-opacity="0.12"/>
<stop offset="1" stop-color="#3D39FF" stop-opacity="0.522946"/>
</linearGradient>
</defs>
</svg>
