<svg width="293" height="374" viewBox="0 0 293 374" fill="none" xmlns="http://www.w3.org/2000/svg">
<g filter="url(#filter0_d)">
<path fill-rule="evenodd" clip-rule="evenodd" d="M66 269.374V296.5L120 265.5V239.5L66 269.374Z" fill="url(#paint0_linear)"/>
<path fill-rule="evenodd" clip-rule="evenodd" d="M12 265.5L66 296.5V271.853L12 240.585L12 265.5Z" fill="url(#paint1_linear)"/>
<path fill-rule="evenodd" clip-rule="evenodd" d="M61.7744 211.349L12 238.5V242C12 242.5 12 242.5 13 243L63 272C66 273.5 66 273.5 69 272L119 243C120 242.5 120 242.5 120 242V238.929L70.2256 211.349C69.0574 210.67 67.5265 210.327 65.9956 210.327C64.4656 210.327 62.9435 210.67 61.7744 211.349Z" fill="url(#paint2_linear)"/>
<path fill-rule="evenodd" clip-rule="evenodd" d="M62.5 208.5L13 237C12.231 237.455 11.999 237.903 12 238.5C12.001 239.096 12.233 239.546 13 240L63 268.951C66 270.7 66 270.699 69 268.951L119 240C119.767 239.546 119.999 239.096 120 238.5C120.001 237.903 119.769 237.455 119 237L69.5 208.5C68.3327 207.808 67.5307 207 66 207C64.4701 207 63.6673 207.808 62.5 208.5Z" fill="url(#paint3_linear)"/>
<path d="M76.002 171.803V277.625H68.002L68.002 162.625L84.0022 162.625V167.625C84.0022 167.625 84.0024 167.625 81.0022 167.625C78.002 167.625 76.002 168.678 76.002 171.803Z" fill="#939393"/>
<path fill-rule="evenodd" clip-rule="evenodd" d="M175.826 88.1255L175.827 221.028L276.614 276.965L276.252 163.638C276.252 163.638 175.653 90.9013 175.826 88.1255Z" fill="#E6E6E6"/>
<path fill-rule="evenodd" clip-rule="evenodd" d="M68.002 273.625L173.002 212.625L278.002 273.625L173.002 334.625L68.002 273.625Z" fill="#D3D3D5"/>
<path d="M97.002 153.625L135.002 175.525V195.625L97.002 173.725V153.625Z" fill="#5B8B89"/>
<path fill-rule="evenodd" clip-rule="evenodd" d="M139.145 187.788C139.224 188.982 140.175 190.345 141.268 190.832C142.361 191.318 143.183 190.744 143.104 189.55C143.024 188.356 142.075 186.993 140.981 186.506C139.888 186.02 139.066 186.593 139.145 187.788Z" fill="#5B8B89"/>
<path fill-rule="evenodd" clip-rule="evenodd" d="M139.145 194.788C139.224 195.982 140.175 197.345 141.268 197.832C142.361 198.318 143.183 197.744 143.104 196.55C143.024 195.356 142.075 193.993 140.981 193.506C139.888 193.02 139.066 193.593 139.145 194.788Z" fill="#5B8B89"/>
<path fill-rule="evenodd" clip-rule="evenodd" d="M139.145 180.788C139.224 181.982 140.175 183.345 141.268 183.832C142.361 184.318 143.183 183.744 143.104 182.55C143.024 181.356 142.075 179.993 140.981 179.506C139.888 179.02 139.066 179.593 139.145 180.788Z" fill="#5B8B89"/>
<path d="M66.002 127.16V135.45L66.002 296.151V296.161C66.0964 297.226 66.9068 298.281 68.3215 299.098L167.342 356.198C170.381 357.95 175.311 357.959 178.355 356.215L276.502 299.624C280.002 297.624 280.002 297.624 280.002 295.8V277.07V277.098V135.1V127.16L66.002 127.16ZM72.002 272.863L72.002 171.124C72.002 166.624 72.002 166.624 78.002 170.124L161.002 218.124C172.5 224 172.5 223.5 172.5 227.5V327.624L72.002 272.863ZM172.5 227.5C172.5 223.475 171.666 225 184.002 218.124C196.338 211.248 269.081 168.946 269.081 168.946C269.662 168.615 270.216 168.439 270.719 168.397C272.228 168.271 273.002 169.384 273.002 171.39V272.624L172.5 327.624V227.5Z" fill="url(#paint4_linear)"/>
<path d="M172 224L168.5 222L170 227L175 226.5L180 220.5L172 224Z" fill="#D3D3D5"/>
<path fill-rule="evenodd" clip-rule="evenodd" d="M167.002 187.124L69.502 130.624C66.0024 128.624 65.983 128.624 66.0023 127.124C66.0144 126.187 66.002 125.124 69.502 123.124L167.002 66.625C172.502 63.124 172.502 63.125 178.002 66.626L277.726 124.061C279.077 124.84 280.02 125.124 280.002 127.124C279.989 128.624 280.002 128.624 274.002 132.124L178.319 187.124C173.002 190.624 173.002 190.624 167.002 187.124Z" fill="white"/>
<path fill-rule="evenodd" clip-rule="evenodd" d="M96 124.871L169.5 167L243 124.871L169.5 82L96 124.871Z" fill="url(#paint5_linear)"/>
</g>
<path d="M172.5 225L76.5 169.5L71.5 167.5V272L171.5 327.5L273 272L272.016 170.199C272.009 169.437 271.186 168.962 270.523 169.339L172.5 225Z" fill="url(#paint6_linear)" fill-opacity="0.17"/>
<path fill-rule="evenodd" clip-rule="evenodd" d="M106 0V126.004L169.5 162L233 126.004V0H106Z" fill="url(#paint7_linear)"/>
<path d="M152.249 236.083C151.555 234.274 153.58 232.633 155.205 233.688L172.385 244.84C173.111 245.312 174.059 245.262 174.733 244.717L190.648 231.824C192.153 230.605 194.34 232.024 193.838 233.896L188.541 253.681C188.317 254.518 188.657 255.404 189.384 255.875L206.563 267.028C208.188 268.082 207.514 270.601 205.579 270.702L185.126 271.778C184.26 271.823 183.523 272.421 183.299 273.258L178.001 293.042C177.5 294.914 174.897 295.051 174.202 293.242L166.859 274.122C166.548 273.313 165.752 272.796 164.887 272.842L144.433 273.917C142.499 274.019 141.564 271.586 143.069 270.366L158.984 257.474C159.658 256.928 159.903 256.011 159.593 255.203L152.249 236.083Z" fill="url(#paint8_radial)"/>
<path d="M179.741 258.654C183.52 267.299 185.608 275.684 185.942 282.242C186.109 285.523 185.835 288.319 185.135 290.454C184.435 292.588 183.328 294.005 181.864 294.646C180.399 295.286 178.608 295.136 176.565 294.2C174.523 293.265 172.285 291.567 169.99 289.216C165.403 284.518 160.665 277.291 156.886 268.646C153.107 260.001 151.019 251.615 150.685 245.057C150.518 241.777 150.792 238.981 151.492 236.846C152.193 234.711 153.299 233.294 154.763 232.654C156.228 232.014 158.019 232.164 160.062 233.1C162.104 234.035 164.342 235.733 166.637 238.084C171.224 242.782 175.962 250.009 179.741 258.654Z" stroke="#F6F1FF"/>
<path d="M189.419 265.802C185.494 274.382 180.634 281.527 175.968 286.147C173.633 288.458 171.367 290.118 169.309 291.019C167.251 291.919 165.457 292.039 164.004 291.374C162.55 290.709 161.468 289.274 160.804 287.127C160.14 284.981 159.914 282.181 160.137 278.904C160.582 272.352 162.812 264.004 166.737 255.424C170.663 246.844 175.522 239.699 180.188 235.079C182.523 232.768 184.79 231.108 186.847 230.207C188.906 229.307 190.699 229.187 192.153 229.852C193.606 230.517 194.688 231.952 195.352 234.099C196.016 236.245 196.242 239.045 196.019 242.322C195.574 248.874 193.345 257.222 189.419 265.802Z" stroke="#F6F1FF"/>
<path d="M175.127 279.928C165.718 280.63 157.114 279.823 150.816 277.965C147.665 277.036 145.118 275.851 143.336 274.484C141.554 273.116 140.583 271.603 140.464 270.009C140.345 268.415 141.08 266.774 142.64 265.157C144.199 263.54 146.542 261.991 149.52 260.604C155.473 257.832 163.861 255.756 173.27 255.054C182.679 254.351 191.282 255.159 197.581 257.017C200.732 257.946 203.279 259.13 205.061 260.498C206.843 261.866 207.814 263.379 207.933 264.973C208.052 266.567 207.316 268.207 205.757 269.825C204.198 271.442 201.854 272.991 198.876 274.378C192.924 277.15 184.535 279.226 175.127 279.928Z" stroke="#F6F1FF"/>
<circle cx="136.5" cy="254.5" r="2.5" fill="#C6A4FF"/>
<circle cx="163.5" cy="247.5" r="2.5" fill="#FF8EA2"/>
<circle cx="151.5" cy="285.5" r="2.5" fill="#FF8EA2"/>
<circle cx="191.5" cy="274.5" r="2.5" fill="#C6A4FF"/>
<circle cx="189.5" cy="294.5" r="2.5" fill="#FF8EA2"/>
<circle cx="174.5" cy="232.5" r="2.5" fill="#C6A4FF"/>
<circle cx="203.5" cy="249.5" r="2.5" fill="#FF8EA2"/>
<path d="M114 33L115.572 37.8369H120.657L116.543 40.8262L118.114 45.6631L114 42.6738L109.886 45.6631L111.457 40.8262L107.343 37.8369H112.428L114 33Z" fill="#FDE541"/>
<path d="M130.173 118.318L129.813 122.664L133.836 124.348L129.592 125.35L129.232 129.696L126.969 125.969L122.725 126.97L125.57 123.665L123.306 119.939L127.328 121.623L130.173 118.318Z" fill="#FDE541"/>
<path d="M221.11 39.7641L220.788 43.6556L224.39 45.164L220.589 46.0608L220.268 49.9523L218.241 46.615L214.44 47.5117L216.988 44.5524L214.96 41.215L218.562 42.7234L221.11 39.7641Z" fill="#FDE541"/>
<path d="M180.693 98.9851L180.386 102.706L183.83 104.148L180.196 105.006L179.888 108.727L177.95 105.536L174.316 106.393L176.752 103.564L174.813 100.372L178.257 101.815L180.693 98.9851Z" fill="#FDE541"/>
<path d="M194.71 90.9851L194.403 94.7061L197.847 96.1483L194.213 97.0058L193.905 100.727L191.967 97.5357L188.333 98.3931L190.769 95.5635L188.831 92.3725L192.274 93.8147L194.71 90.9851Z" fill="white"/>
<path d="M160.71 129.985L160.403 133.706L163.847 135.148L160.213 136.006L159.905 139.727L157.967 136.536L154.333 137.393L156.769 134.564L154.831 131.372L158.274 132.815L160.71 129.985Z" fill="white"/>
<path d="M131.711 41.9853L131.428 45.4102L134.597 46.7377L131.253 47.5269L130.97 50.9518L129.185 48.0146L125.841 48.8038L128.083 46.1994L126.299 43.2623L129.468 44.5898L131.711 41.9853Z" fill="white"/>
<path d="M185.017 21.8271L184.734 25.252L187.904 26.5795L184.559 27.3687L184.276 30.7936L182.492 27.8564L179.147 28.6456L181.389 26.0412L179.605 23.1041L182.775 24.4316L185.017 21.8271Z" fill="white"/>
<path d="M223.017 63.8271L222.734 67.252L225.904 68.5795L222.559 69.3687L222.276 72.7936L220.492 69.8564L217.147 70.6456L219.389 68.0412L217.605 65.1041L220.775 66.4316L223.017 63.8271Z" fill="white"/>
<path d="M150.017 103.827L149.734 107.252L152.904 108.579L149.559 109.369L149.276 112.794L147.492 109.856L144.147 110.646L146.389 108.041L144.605 105.104L147.775 106.432L150.017 103.827Z" fill="white"/>
<path d="M196.875 64.1317L197.786 66.2338L201.478 64.9648L198.35 67.533L199.262 69.635L196.417 69.1202L193.289 71.6884L194.658 68.802L191.813 68.2872L195.505 67.0181L196.875 64.1317Z" fill="white"/>
<path d="M177.596 104.164L178.508 106.266L182.2 104.997L179.072 107.565L179.984 109.667L177.138 109.152L174.01 111.721L175.38 108.834L172.535 108.319L176.227 107.05L177.596 104.164Z" fill="white"/>
<path d="M122.049 75.6633L122.888 77.5981L126.286 76.43L123.407 78.7939L124.246 80.7287L121.627 80.2548L118.748 82.6186L120.009 79.9619L117.39 79.4881L120.788 78.32L122.049 75.6633Z" fill="white"/>
<path d="M157.287 30.6076L158.126 32.5424L161.524 31.3744L158.645 33.7382L159.484 35.673L156.865 35.1991L153.986 37.563L155.247 34.9063L152.628 34.4324L156.026 33.2643L157.287 30.6076Z" fill="white"/>
<path d="M214.638 33.5466L215.477 35.4814L218.875 34.3133L215.996 36.6772L216.835 38.612L214.216 38.1381L211.337 40.5019L212.598 37.8452L209.979 37.3714L213.377 36.2033L214.638 33.5466Z" fill="white"/>
<path d="M159.143 96.904L159.982 98.8388L163.38 97.6708L160.501 100.035L161.34 101.969L158.721 101.496L155.842 103.859L157.103 101.203L154.484 100.729L157.882 99.5607L159.143 96.904Z" fill="white"/>
<path d="M178.417 41.9185L178.092 45.8469L181.728 47.3695L177.892 48.2747L177.567 52.2031L175.521 48.8342L171.684 49.7394L174.256 46.7521L172.209 43.3832L175.845 44.9058L178.417 41.9185Z" fill="#FDE541"/>
<path d="M27 255L45.7595 265.861V281L27 270.468V255Z" fill="#474147"/>
<path d="M49.8332 271.032L51.333 275.032L48.0571 273.562L49.8332 271.032Z" fill="#271648"/>
<path d="M49.431 279.044L48.0001 275.019L51.2503 276.545L49.431 279.044Z" fill="#271648"/>
<defs>
<filter id="filter0_d" x="0" y="55.9995" width="292.002" height="317.518" filterUnits="userSpaceOnUse" color-interpolation-filters="sRGB">
<feFlood flood-opacity="0" result="BackgroundImageFix"/>
<feColorMatrix in="SourceAlpha" type="matrix" values="0 0 0 0 0 0 0 0 0 0 0 0 0 0 0 0 0 0 127 0"/>
<feOffset dy="4"/>
<feGaussianBlur stdDeviation="6"/>
<feColorMatrix type="matrix" values="0 0 0 0 0 0 0 0 0 0 0 0 0 0 0 0 0 0 0.25 0"/>
<feBlend mode="normal" in2="BackgroundImageFix" result="effect1_dropShadow"/>
<feBlend mode="normal" in="SourceGraphic" in2="effect1_dropShadow" result="shape"/>
</filter>
<linearGradient id="paint0_linear" x1="91.3135" y1="279.98" x2="81.5585" y2="260.165" gradientUnits="userSpaceOnUse">
<stop stop-color="white"/>
<stop offset="1" stop-color="white"/>
</linearGradient>
<linearGradient id="paint1_linear" x1="33.0763" y1="279.055" x2="44.1387" y2="259.718" gradientUnits="userSpaceOnUse">
<stop stop-color="white"/>
<stop offset="1" stop-color="white"/>
</linearGradient>
<linearGradient id="paint2_linear" x1="11.9998" y1="241.327" x2="120.001" y2="241.327" gradientUnits="userSpaceOnUse">
<stop stop-color="#CE9CAA"/>
<stop offset="1" stop-color="#F0959A"/>
</linearGradient>
<linearGradient id="paint3_linear" x1="38.1858" y1="222.018" x2="66.2033" y2="270.827" gradientUnits="userSpaceOnUse">
<stop stop-color="#FF8EA2"/>
<stop offset="1" stop-color="#DAD1E9"/>
</linearGradient>
<linearGradient id="paint4_linear" x1="66.0021" y1="242.339" x2="280.002" y2="242.339" gradientUnits="userSpaceOnUse">
<stop stop-color="#DAD1E9"/>
<stop offset="0.970894" stop-color="#FCFBFB"/>
<stop offset="1" stop-color="#FCFBFB"/>
</linearGradient>
<linearGradient id="paint5_linear" x1="96" y1="124.5" x2="243" y2="124.5" gradientUnits="userSpaceOnUse">
<stop stop-color="#DAD1E9"/>
<stop offset="0.00470773" stop-color="#F2BE94"/>
<stop offset="1" stop-color="#DAD1E9"/>
</linearGradient>
<linearGradient id="paint6_linear" x1="172" y1="222.5" x2="172.25" y2="327.5" gradientUnits="userSpaceOnUse">
<stop stop-color="#12BFFF"/>
<stop offset="1" stop-color="#12BFFF" stop-opacity="0.25"/>
</linearGradient>
<linearGradient id="paint7_linear" x1="84.9159" y1="22.9999" x2="84.9159" y2="204.78" gradientUnits="userSpaceOnUse">
<stop stop-color="white" stop-opacity="0.01"/>
<stop offset="0.650749" stop-color="#DAD1E9"/>
<stop offset="1" stop-color="#DAD1E9"/>
</linearGradient>
<radialGradient id="paint8_radial" cx="0" cy="0" r="1" gradientUnits="userSpaceOnUse" gradientTransform="translate(174.379 260.379) rotate(50.9902) scale(38.6628)">
<stop stop-color="#FDE541"/>
<stop offset="1" stop-color="#FFF5B5" stop-opacity="0.56"/>
</radialGradient>
</defs>
</svg>
