<svg width="333" height="428" viewBox="0 0 333 428" fill="none" xmlns="http://www.w3.org/2000/svg">
<g filter="url(#filter0_d)">
<rect width="52.479" height="52.4832" transform="matrix(0.854533 -0.519397 0.847139 0.531372 165.217 259.644)" fill="white"/>
<path d="M210.999 232L254.999 204L298.999 232L254.999 260L210.999 232Z" fill="white"/>
<path d="M34.9985 232L78.9989 204L122.999 232L78.9987 260L34.9985 232Z" fill="white"/>
<path d="M167 61L79.0001 116.97V218.448L167 162.478V61Z" fill="url(#paint0_linear)"/>
<path d="M167 61L255 116.97V218.448L167 162.478V61Z" fill="#DAD1E9"/>
<path d="M78.9985 311L122.999 283L166.999 311L122.999 339L78.9985 311Z" fill="white"/>
<path fill-rule="evenodd" clip-rule="evenodd" d="M79 209L123 237V390L79 362.14V311L35 283V232L79 259.972V209Z" fill="url(#paint1_linear)"/>
<path d="M167 311L211 338.986V389.986L167 362V311Z" fill="#DAD1E9"/>
<path d="M167 311L123 338.986V389.986L167 362V311Z" fill="#C4BDD0"/>
<path d="M166.999 311L210.999 283L254.999 311L210.999 339L166.999 311Z" fill="white"/>
<path d="M123 288L167 315.986V366.986L123 339V288Z" fill="#DAD1E9"/>
<path fill-rule="evenodd" clip-rule="evenodd" d="M255 209L211 236.986V287.986V288L167 315.986V366.986L211 339V389.986L255 362V311V310.986L299 283V232L255 259.986V209Z" fill="url(#paint2_linear)"/>
<path d="M167 209L123 236.986V287.986L167 260V209Z" fill="#DAD1E9"/>
<path d="M123 135L167 162.986V213.986L123 186V135Z" fill="#DAD1E9"/>
<path d="M211 135L167 162.986V213.986L211 186V135Z" fill="url(#paint3_linear)"/>
<path d="M123 288L167 260L211 288L167 316L123 288Z" fill="white"/>
<path d="M167 209L211 236.986V287.986L167 260V209Z" fill="#DAD1E9"/>
<path d="M78.9985 209L122.999 181L166.999 209L122.999 237L78.9985 209Z" fill="white"/>
<path d="M166.999 209L210.999 181L254.999 209L210.999 237L166.999 209Z" fill="white"/>
</g>
<path fill-rule="evenodd" clip-rule="evenodd" d="M123 0V135L167 163L211 135V0H123Z" fill="url(#paint4_linear)"/>
<path d="M125 37.3901L126.572 42.227H131.657L127.543 45.2164L129.114 50.0533L125 47.0639L120.886 50.0533L122.457 45.2164L118.343 42.227H123.428L125 37.3901Z" fill="#FDE541"/>
<path d="M141.173 112.709L140.813 117.054L144.836 118.739L140.592 119.74L140.232 124.086L137.969 120.359L133.725 121.36L136.57 118.056L134.306 114.329L138.328 116.013L141.173 112.709Z" fill="#FDE541"/>
<path d="M191.693 93.3752L191.386 97.0962L194.83 98.5385L191.196 99.3959L190.888 103.117L188.95 99.9258L185.316 100.783L187.752 97.9536L185.813 94.7626L189.257 96.2048L191.693 93.3752Z" fill="#FDE541"/>
<path d="M205.71 85.3752L205.403 89.0962L208.847 90.5385L205.213 91.3959L204.905 95.1169L202.967 91.9258L199.333 92.7833L201.769 89.9536L199.831 86.7626L203.274 88.2048L205.71 85.3752Z" fill="white"/>
<path d="M171.71 124.375L171.403 128.096L174.847 129.538L171.213 130.396L170.905 134.117L168.967 130.926L165.333 131.783L167.769 128.954L165.831 125.763L169.274 127.205L171.71 124.375Z" fill="white"/>
<path d="M142.711 46.3755L142.428 49.8003L145.597 51.1278L142.253 51.917L141.97 55.3419L140.185 52.4048L136.841 53.194L139.083 50.5895L137.299 47.6524L140.468 48.9799L142.711 46.3755Z" fill="white"/>
<path d="M196.017 26.2173L195.734 29.6421L198.904 30.9696L195.559 31.7588L195.276 35.1837L193.492 32.2466L190.147 33.0358L192.389 30.4313L190.605 27.4942L193.775 28.8217L196.017 26.2173Z" fill="white"/>
<path d="M161.017 98.2173L160.734 101.642L163.904 102.97L160.559 103.759L160.276 107.184L158.492 104.247L155.147 105.036L157.389 102.431L155.605 99.4942L158.775 100.822L161.017 98.2173Z" fill="white"/>
<path d="M207.875 58.5219L208.786 60.6239L212.478 59.3549L209.35 61.9231L210.262 64.0252L207.417 63.5103L204.289 66.0785L205.658 63.1921L202.813 62.6773L206.505 61.4083L207.875 58.5219Z" fill="white"/>
<path d="M188.596 98.5541L189.508 100.656L193.2 99.3871L190.072 101.955L190.984 104.057L188.138 103.543L185.01 106.111L186.38 103.224L183.535 102.71L187.227 101.44L188.596 98.5541Z" fill="white"/>
<path d="M133.049 70.0534L133.888 71.9882L137.286 70.8202L134.407 73.184L135.246 75.1188L132.627 74.6449L129.748 77.0088L131.009 74.3521L128.39 73.8782L131.788 72.7101L133.049 70.0534Z" fill="white"/>
<path d="M168.287 34.9978L169.126 36.9326L172.524 35.7645L169.645 38.1283L170.484 40.0631L167.865 39.5893L164.986 41.9531L166.247 39.2964L163.628 38.8225L167.026 37.6545L168.287 34.9978Z" fill="white"/>
<path d="M170.143 91.2942L170.982 93.229L174.38 92.0609L171.501 94.4247L172.34 96.3595L169.721 95.8857L166.842 98.2495L168.103 95.5928L165.484 95.1189L168.882 93.9509L170.143 91.2942Z" fill="white"/>
<path d="M189.417 46.3086L189.092 50.237L192.728 51.7596L188.892 52.6648L188.567 56.5932L186.521 53.2243L182.684 54.1295L185.256 51.1422L183.209 47.7733L186.845 49.2959L189.417 46.3086Z" fill="#FDE541"/>
<path d="M167.759 60.2153L167.437 64.1068L171.039 65.6152L167.238 66.5119L166.917 70.4035L164.89 67.0661L161.089 67.9629L163.637 65.0035L161.609 61.6662L165.211 63.1746L167.759 60.2153Z" fill="#FDE541"/>
<path d="M169.666 84.2783L169.383 87.7032L172.553 89.0307L169.208 89.8199L168.925 93.2447L167.141 90.3076L163.796 91.0968L166.038 88.4924L164.254 85.5553L167.424 86.8827L169.666 84.2783Z" fill="white"/>
<path d="M161.287 53.9978L162.126 55.9326L165.524 54.7645L162.645 57.1283L163.484 59.0631L160.865 58.5893L157.986 60.9531L159.247 58.2964L156.628 57.8225L160.026 56.6545L161.287 53.9978Z" fill="white"/>
<g filter="url(#filter1_d)">
<path d="M177.015 79.6581C177.015 86.7466 175.894 93.1413 174.099 97.7456C173.2 100.049 172.143 101.879 170.995 103.125C169.847 104.371 168.646 104.995 167.442 104.995C166.237 104.995 165.036 104.371 163.888 103.125C162.74 101.879 161.683 100.049 160.784 97.7456C158.989 93.1413 157.868 86.7466 157.868 79.6581C157.868 72.5696 158.989 66.1749 160.784 61.5707C161.683 59.267 162.74 57.4368 163.888 56.191C165.036 54.9457 166.237 54.3218 167.442 54.3218C168.646 54.3218 169.847 54.9457 170.995 56.191C172.143 57.4368 173.2 59.267 174.099 61.5707C175.894 66.1749 177.015 72.5696 177.015 79.6581Z" fill="#C4C4C4" fill-opacity="0.01" stroke="#FDDA60"/>
<path d="M167.395 89.2313C160.306 89.197 153.917 88.0449 149.322 86.2274C147.023 85.3181 145.197 84.2521 143.957 83.0977C142.718 81.9437 142.099 80.7394 142.105 79.5353C142.111 78.3311 142.741 77.1329 143.992 75.991C145.243 74.8487 147.078 73.8004 149.386 72.9134C153.999 71.1406 160.399 70.0504 167.488 70.0848C174.576 70.1191 180.965 71.2712 185.561 73.0886C187.86 73.998 189.685 75.064 190.925 76.2184C192.165 77.3724 192.783 78.5767 192.777 79.7808C192.772 80.9849 192.142 82.1832 190.891 83.3251C189.64 84.4674 187.804 85.5157 185.496 86.4027C180.883 88.1755 174.483 89.2657 167.395 89.2313Z" fill="#C4C4C4" fill-opacity="0.01" stroke="#FDDA60"/>
<path d="M173.446 87.1151C167.924 91.5607 162.241 94.698 157.528 96.1874C155.171 96.9326 153.082 97.257 151.392 97.1439C149.702 97.0307 148.462 96.4864 147.707 95.5485C146.952 94.6106 146.685 93.2836 146.935 91.6085C147.185 89.9327 147.947 87.9614 149.178 85.8171C151.639 81.5313 155.916 76.6475 161.437 72.2019C166.959 67.7563 172.643 64.619 177.355 63.1296C179.712 62.3844 181.801 62.06 183.491 62.1731C185.181 62.2862 186.421 62.8306 187.176 63.7685C187.931 64.7064 188.198 66.0334 187.948 67.7085C187.698 69.3843 186.936 71.3556 185.705 73.4999C183.244 77.7857 178.967 82.6695 173.446 87.1151Z" fill="#C4C4C4" fill-opacity="0.01" stroke="#FDDA60"/>
<path d="M175.058 73.8589C179.352 79.4986 182.334 85.2656 183.695 90.0163C184.376 92.3933 184.644 94.4899 184.485 96.1767C184.326 97.8629 183.748 99.0871 182.79 99.8166C181.832 100.546 180.498 100.777 178.83 100.482C177.162 100.186 175.212 99.3707 173.102 98.0819C168.885 95.5062 164.119 91.0975 159.825 85.4578C155.53 79.818 152.549 74.051 151.188 69.3003C150.507 66.9233 150.239 64.8267 150.398 63.1399C150.557 61.4537 151.135 60.2295 152.093 59.5001C153.051 58.7706 154.385 58.5393 156.052 58.8347C157.721 59.1302 159.671 59.9459 161.781 61.2347C165.998 63.8104 170.764 68.2191 175.058 73.8589Z" fill="#C4C4C4" fill-opacity="0.01" stroke="#FDDA60"/>
</g>
<circle cx="159.039" cy="52.8394" r="0.839449" fill="#FDDA60"/>
<circle cx="177.133" cy="52.8394" r="0.839449" fill="#FDDA60"/>
<circle cx="167.059" cy="79.1422" r="0.839449" fill="#FDDA60"/>
<circle cx="159.039" cy="102.46" r="0.839449" fill="#FDDA60"/>
<circle cx="136.839" cy="79.1422" r="0.839449" fill="#FDDA60"/>
<circle cx="196.161" cy="79.1422" r="0.839449" fill="#FDDA60"/>
<circle cx="177.133" cy="102.46" r="0.839449" fill="#FDDA60"/>
<defs>
<filter id="filter0_d" x="0.998535" y="31" width="332.001" height="397" filterUnits="userSpaceOnUse" color-interpolation-filters="sRGB">
<feFlood flood-opacity="0" result="BackgroundImageFix"/>
<feColorMatrix in="SourceAlpha" type="matrix" values="0 0 0 0 0 0 0 0 0 0 0 0 0 0 0 0 0 0 127 0"/>
<feOffset dy="4"/>
<feGaussianBlur stdDeviation="17"/>
<feColorMatrix type="matrix" values="0 0 0 0 0.508899 0 0 0 0 0.0841493 0 0 0 0 0.545833 0 0 0 0.25 0"/>
<feBlend mode="normal" in2="BackgroundImageFix" result="effect1_dropShadow"/>
<feBlend mode="normal" in="SourceGraphic" in2="effect1_dropShadow" result="shape"/>
</filter>
<filter id="filter1_d" x="140" y="53" width="54.8826" height="55.3168" filterUnits="userSpaceOnUse" color-interpolation-filters="sRGB">
<feFlood flood-opacity="0" result="BackgroundImageFix"/>
<feColorMatrix in="SourceAlpha" type="matrix" values="0 0 0 0 0 0 0 0 0 0 0 0 0 0 0 0 0 0 127 0"/>
<feOffset dy="1"/>
<feGaussianBlur stdDeviation="0.5"/>
<feColorMatrix type="matrix" values="0 0 0 0 0.645833 0 0 0 0 0.364842 0 0 0 0 0.0349826 0 0 0 0.25 0"/>
<feBlend mode="normal" in2="BackgroundImageFix" result="effect1_dropShadow"/>
<feBlend mode="normal" in="SourceGraphic" in2="effect1_dropShadow" result="shape"/>
</filter>
<linearGradient id="paint0_linear" x1="123" y1="88.7619" x2="168.998" y2="161.664" gradientUnits="userSpaceOnUse">
<stop stop-color="#271648"/>
<stop offset="0.286458" stop-color="#271648"/>
<stop offset="0.53125" stop-color="#351F62" stop-opacity="0.92"/>
<stop offset="0.786458" stop-color="#392462" stop-opacity="0.94"/>
<stop offset="0.848958" stop-color="#3F2A68" stop-opacity="0.87"/>
<stop offset="1" stop-color="#271648" stop-opacity="0.64"/>
</linearGradient>
<linearGradient id="paint1_linear" x1="100.17" y1="221.522" x2="30.1648" y2="333.003" gradientUnits="userSpaceOnUse">
<stop stop-color="#271648"/>
<stop offset="0.286458" stop-color="#271648"/>
<stop offset="0.53125" stop-color="#351F62" stop-opacity="0.92"/>
<stop offset="0.786458" stop-color="#392462" stop-opacity="0.94"/>
<stop offset="0.848958" stop-color="#3F2A68" stop-opacity="0.87"/>
<stop offset="1" stop-color="#271648" stop-opacity="0.64"/>
</linearGradient>
<linearGradient id="paint2_linear" x1="189.512" y1="239.285" x2="258.4" y2="349.251" gradientUnits="userSpaceOnUse">
<stop stop-color="#271648"/>
<stop offset="0.286458" stop-color="#271648"/>
<stop offset="0.53125" stop-color="#351F62" stop-opacity="0.92"/>
<stop offset="0.786458" stop-color="#392462" stop-opacity="0.94"/>
<stop offset="0.848958" stop-color="#3F2A68" stop-opacity="0.87"/>
<stop offset="1" stop-color="#271648" stop-opacity="0.64"/>
</linearGradient>
<linearGradient id="paint3_linear" x1="189" y1="148.881" x2="212.117" y2="185.519" gradientUnits="userSpaceOnUse">
<stop stop-color="#271648"/>
<stop offset="0.286458" stop-color="#271648"/>
<stop offset="0.53125" stop-color="#351F62" stop-opacity="0.92"/>
<stop offset="0.786458" stop-color="#392462" stop-opacity="0.94"/>
<stop offset="0.848958" stop-color="#3F2A68" stop-opacity="0.87"/>
<stop offset="1" stop-color="#271648" stop-opacity="0.64"/>
</linearGradient>
<linearGradient id="paint4_linear" x1="271.5" y1="10" x2="269.724" y2="171.786" gradientUnits="userSpaceOnUse">
<stop stop-color="#FF8C5A" stop-opacity="0.01"/>
<stop offset="0.671875" stop-color="#E9C752" stop-opacity="0.6"/>
<stop offset="1" stop-color="#D6C535" stop-opacity="0.9"/>
</linearGradient>
</defs>
</svg>
