<svg width="355" height="423" viewBox="0 0 355 423" fill="none" xmlns="http://www.w3.org/2000/svg">
<g filter="url(#filter0_d)">
<path d="M22.002 115.803V221.625H14.002L14.002 106.625L30.0022 106.625V111.625C30.0022 111.625 30.0024 111.625 27.0022 111.625C24.002 111.625 22.002 112.678 22.002 115.803Z" fill="#939393"/>
<path fill-rule="evenodd" clip-rule="evenodd" d="M121.827 32.125L121.827 165.028L222.614 220.964L222.252 107.638C222.252 107.638 121.654 34.9008 121.827 32.125Z" fill="#E6E6E6"/>
<path fill-rule="evenodd" clip-rule="evenodd" d="M14.002 217.625L119.002 156.625L224.002 217.625L119.002 278.625L14.002 217.625Z" fill="#D3D3D5"/>
<path fill-rule="evenodd" clip-rule="evenodd" d="M119.002 222.499V249.625L173.002 218.625V192.625L119.002 222.499Z" fill="url(#paint0_linear)"/>
<path fill-rule="evenodd" clip-rule="evenodd" d="M65.002 218.625L119.002 249.625V224.978L65.002 193.71V218.625Z" fill="url(#paint1_linear)"/>
<path fill-rule="evenodd" clip-rule="evenodd" d="M114.776 164.474L65.002 191.625V195.125C65.002 195.625 65.002 195.625 66.002 196.125L116.002 225.125C119.002 226.625 119.002 226.625 122.002 225.125L172.002 196.125C173.002 195.625 173.002 195.625 173.002 195.125V192.054L123.228 164.474C122.059 163.795 120.528 163.452 118.998 163.452C117.468 163.452 115.945 163.795 114.776 164.474Z" fill="url(#paint2_linear)"/>
<path fill-rule="evenodd" clip-rule="evenodd" d="M115.502 161.625L66.002 190.125C65.233 190.58 65.001 191.028 65.002 191.625C65.003 192.221 65.235 192.671 66.002 193.125L116.002 222.076C119.002 223.825 119.002 223.824 122.002 222.076L172.002 193.125C172.769 192.671 173.001 192.221 173.002 191.625C173.003 191.028 172.771 190.58 172.002 190.125L122.502 161.625C121.335 160.933 120.533 160.125 119.002 160.125C117.472 160.125 116.669 160.933 115.502 161.625Z" fill="url(#paint3_linear)"/>
<path fill-rule="evenodd" clip-rule="evenodd" d="M118.715 174.625L146.002 189.625L119.502 205.125L93.002 189.625L118.715 174.625Z" stroke="#D53535" stroke-width="16" stroke-linecap="round" stroke-linejoin="round"/>
<path fill-rule="evenodd" clip-rule="evenodd" d="M119.502 171.625L146.002 186.625L119.502 202.125L93.002 186.625L119.502 171.625Z" stroke="#FF6161" stroke-width="16" stroke-linecap="round" stroke-linejoin="round"/>
<path fill-rule="evenodd" clip-rule="evenodd" d="M134.914 174.25L144.565 169.339L154.548 174.697L145.623 180.054L134.914 174.25Z" fill="#3A3A3A"/>
<path fill-rule="evenodd" clip-rule="evenodd" d="M145.623 180.053L154.548 174.696V181.839L145.623 187.196V180.053Z" fill="#3E3E3E"/>
<path fill-rule="evenodd" clip-rule="evenodd" d="M134.914 174.25L145.623 180.053V187.196L134.914 181.315V174.25Z" fill="#5D5D5D"/>
<path d="M144.491 172.804C144.491 161.125 164.002 154.738 181.787 153.722C209.502 152.14 215.502 133.625 215.502 100.625" stroke="#535353" stroke-width="4" stroke-linecap="round" stroke-linejoin="round"/>
<path d="M146.491 173.804C146.491 162.125 166.002 155.738 183.787 154.722C211.502 153.14 217.502 134.625 217.502 101.625" stroke="black" stroke-width="4" stroke-linecap="round" stroke-linejoin="round"/>
<path d="M12.0022 71.1604L12.0022 79.4503L12.0022 240.151V240.161C12.0966 241.226 12.9071 242.281 14.3217 243.098L113.342 300.198C116.382 301.95 121.311 301.959 124.355 300.215L222.502 243.624C226.002 241.624 226.002 241.624 226.002 239.8V221.07V221.098L226.002 79.1003V71.1604L12.0022 71.1604ZM18.0022 216.863L18.0022 115.124C18.0022 110.624 18.0022 110.624 24.0022 114.124L107.002 162.124C113.002 165.624 113.002 165.624 113.002 169.624L113.002 271.624L18.0022 216.863ZM124.002 169.624C124.002 165.599 124.002 165.624 130.002 162.124L215.081 112.946C215.662 112.615 216.216 112.439 216.719 112.397C218.228 112.271 219.002 113.384 219.002 115.39L219.002 216.624L124.002 271.624L124.002 169.624Z" fill="url(#paint4_linear)"/>
<path fill-rule="evenodd" clip-rule="evenodd" d="M113.002 131.124L15.502 74.624C12.0024 72.624 11.983 72.624 12.0023 71.124C12.0144 70.1868 12.002 69.124 15.502 67.124L113.002 10.625C118.502 7.12402 118.502 7.125 124.002 10.626L223.726 68.061C225.077 68.8402 226.02 69.124 226.002 71.124C225.989 72.624 226.002 72.624 220.002 76.124L124.319 131.124C119.002 134.624 119.002 134.624 113.002 131.124Z" fill="white"/>
<path d="M43.002 97.625L81.002 119.525V139.625L43.002 117.725V97.625Z" fill="#5B8B89"/>
<path fill-rule="evenodd" clip-rule="evenodd" d="M85.1452 131.788C85.2243 132.982 86.1747 134.345 87.268 134.832C88.3613 135.318 89.1826 134.744 89.1035 133.55C89.0244 132.356 88.0748 130.993 86.9815 130.506C85.8882 130.02 85.0661 130.593 85.1452 131.788Z" fill="#5B8B89"/>
<path fill-rule="evenodd" clip-rule="evenodd" d="M85.1452 138.788C85.2243 139.982 86.1747 141.345 87.268 141.832C88.3613 142.318 89.1826 141.744 89.1035 140.55C89.0244 139.356 88.0748 137.993 86.9815 137.506C85.8882 137.02 85.0661 137.593 85.1452 138.788Z" fill="#5B8B89"/>
<path fill-rule="evenodd" clip-rule="evenodd" d="M85.1452 124.788C85.2243 125.982 86.1747 127.345 87.268 127.832C88.3613 128.318 89.1826 127.744 89.1035 126.55C89.0244 125.356 88.0748 123.993 86.9815 123.506C85.8882 123.02 85.0661 123.593 85.1452 124.788Z" fill="#5B8B89"/>
<path fill-rule="evenodd" clip-rule="evenodd" d="M54.002 65.6188V69.5242L118.502 106.625L183.002 69.5242V65.6188L118.502 31.7735L54.002 65.6188Z" fill="url(#paint5_linear)"/>
<path fill-rule="evenodd" clip-rule="evenodd" d="M54.002 65.9602L118.502 103.061L183.002 65.9602L118.502 28.2095L54.002 65.9602Z" fill="url(#paint6_linear)"/>
<path fill-rule="evenodd" clip-rule="evenodd" d="M54.002 54.036V57.9402L118.502 95.0405L183.002 57.9402V54.036C161.502 42.753 140.002 31.471 118.502 20.189C97.002 31.471 75.502 42.753 54.002 54.036Z" fill="url(#paint7_linear)"/>
<path fill-rule="evenodd" clip-rule="evenodd" d="M54.002 54.3773L118.502 91.4766L183.002 54.3773L118.502 16.6251L54.002 54.3773Z" fill="url(#paint8_linear)"/>
<path fill-rule="evenodd" clip-rule="evenodd" d="M336.002 183.625C336.002 202.125 336.002 277.557 336.002 277.557C336.002 277.557 337.406 279.825 314.599 292.201C291.793 304.577 264.919 321.1 264.919 321.1C264.919 321.1 249.714 329.65 234.511 321.1C219.306 312.549 167.866 283.383 167.866 283.383C167.866 283.383 164.002 281.403 164.002 277.557C164.002 273.71 164.002 186.089 164.002 186.089C164.002 186.089 164.002 186.78 165.502 187.625C167.313 188.645 167.079 188.791 172.056 191.585C177.635 194.716 196.496 205.635 237.449 229.148C241.634 231.551 247.001 231.624 250.001 231.624C253.001 231.624 258.501 231.369 263.402 228.577C309.536 202.298 330.047 190.245 332.174 188.915C335.591 186.778 336.002 184.497 336.002 183.625Z" fill="url(#paint9_linear)"/>
<path fill-rule="evenodd" clip-rule="evenodd" d="M181.001 272.821V216.625L238.001 249.625V305.625L181.001 272.821Z" fill="url(#paint10_linear)"/>
<path d="M238.002 305.477V249.625L229.502 244.775L181.002 272.625L177.76 270.911L34.0979 354.078C32.0863 355.243 30.4149 356.437 29.5251 357.888C27.8283 360.658 27.8288 363.685 27.8291 365.755L27.8291 365.805C27.8293 368.189 28.8275 370.344 31.0017 371.625C89.8282 406.29 91.0017 406.225 91.0017 406.225C90.0691 405.379 88.8119 404.165 88.8119 401.345C88.8119 393.975 94.5364 390.343 95.6548 389.661L240.002 306.625L238.002 305.477Z" fill="url(#paint11_linear)"/>
<path d="M83.9507 342.922C82.7825 343.658 81.2325 342.958 80.0293 341.106C78.8261 339.253 77.3503 338.322 77.8502 337.972C83.9884 333.671 88.85 330.822 91.0286 334.176C93.2072 337.531 89.4504 339.458 83.9507 342.922Z" fill="#FF8885"/>
<ellipse rx="4" ry="2.5" transform="matrix(0.866025 0.5 -0.511893 0.859049 80.9214 340.41)" fill="#FF6666"/>
<path d="M81.9438 340.742C81.9438 340.742 82.2017 340.707 82.4077 341.05C82.6137 341.393 82.4588 341.599 82.4588 341.599L55.8339 357.101L55.3189 356.244L81.9438 340.742Z" fill="#8E8E8E"/>
<ellipse rx="0.5" ry="0.238712" transform="matrix(0.515038 0.857167 -0.864187 0.503171 55.5617 356.681)" fill="#C1C1C1"/>
<path d="M79.1964 339.442C79.1964 339.442 79.4543 339.407 79.6604 339.75C79.8664 340.093 79.7115 340.299 79.7115 340.299L53.0866 355.801L52.5716 354.944L79.1964 339.442Z" fill="#8E8E8E"/>
<ellipse rx="0.5" ry="0.238712" transform="matrix(0.515038 0.857167 -0.864187 0.503171 52.8144 355.381)" fill="#C1C1C1"/>
<path d="M100.95 352.922C99.782 353.658 98.232 352.958 97.0288 351.106C95.8256 349.253 94.3499 348.322 94.8497 347.972C100.988 343.671 105.85 340.822 108.028 344.176C110.207 347.531 106.45 349.458 100.95 352.922Z" fill="#C2FF73"/>
<ellipse rx="4" ry="2.5" transform="matrix(0.866025 0.5 -0.511893 0.859049 97.9209 350.41)" fill="#98E733"/>
<path d="M98.9433 350.742C98.9433 350.742 99.2012 350.707 99.4072 351.05C99.6132 351.393 99.4583 351.599 99.4583 351.599L72.8334 367.101L72.3184 366.244L98.9433 350.742Z" fill="#8E8E8E"/>
<ellipse rx="0.5" ry="0.238712" transform="matrix(0.515038 0.857167 -0.864187 0.503171 72.5612 366.681)" fill="#C1C1C1"/>
<path d="M96.1959 349.442C96.1959 349.442 96.4538 349.407 96.6599 349.75C96.8659 350.093 96.711 350.299 96.711 350.299L70.0861 365.801L69.5711 364.944L96.1959 349.442Z" fill="#8E8E8E"/>
<ellipse rx="0.5" ry="0.238712" transform="matrix(0.515038 0.857167 -0.864187 0.503171 69.8139 365.381)" fill="#C1C1C1"/>
<path d="M117.95 362.922C116.782 363.658 115.232 362.958 114.029 361.106C112.826 359.253 111.35 358.322 111.85 357.972C117.988 353.671 122.85 350.822 125.028 354.176C127.207 357.531 123.45 359.458 117.95 362.922Z" fill="#FFF576"/>
<ellipse rx="4" ry="2.5" transform="matrix(0.866025 0.5 -0.511893 0.859049 114.921 360.41)" fill="#FFE54D"/>
<path d="M115.943 360.742C115.943 360.742 116.201 360.707 116.407 361.05C116.613 361.393 116.458 361.599 116.458 361.599L89.8334 377.101L89.3184 376.244L115.943 360.742Z" fill="#8E8E8E"/>
<ellipse rx="0.5" ry="0.238712" transform="matrix(0.515038 0.857167 -0.864187 0.503171 89.5612 376.681)" fill="#C1C1C1"/>
<path d="M113.196 359.442C113.196 359.442 113.454 359.407 113.66 359.75C113.866 360.093 113.711 360.299 113.711 360.299L87.0861 375.801L86.5711 374.944L113.196 359.442Z" fill="#8E8E8E"/>
<ellipse rx="0.5" ry="0.238712" transform="matrix(0.515038 0.857167 -0.864187 0.503171 86.8139 375.381)" fill="#C1C1C1"/>
<path d="M133.951 312.922C132.783 313.658 131.232 312.958 130.029 311.106C128.826 309.253 127.35 308.322 127.85 307.972C133.988 303.671 138.85 300.822 141.029 304.176C143.207 307.531 139.45 309.458 133.951 312.922Z" fill="#FF8885"/>
<ellipse rx="4" ry="2.5" transform="matrix(0.866025 0.5 -0.511893 0.859049 130.921 310.41)" fill="#FF6666"/>
<path d="M131.944 310.742C131.944 310.742 132.202 310.707 132.408 311.05C132.614 311.393 132.459 311.599 132.459 311.599L105.834 327.101L105.319 326.244L131.944 310.742Z" fill="#8E8E8E"/>
<ellipse rx="0.5" ry="0.238712" transform="matrix(0.515038 0.857167 -0.864187 0.503171 105.562 326.681)" fill="#C1C1C1"/>
<path d="M129.196 309.442C129.196 309.442 129.454 309.407 129.66 309.75C129.866 310.093 129.711 310.299 129.711 310.299L103.087 325.801L102.572 324.944L129.196 309.442Z" fill="#8E8E8E"/>
<ellipse rx="0.5" ry="0.238712" transform="matrix(0.515038 0.857167 -0.864187 0.503171 102.814 325.381)" fill="#C1C1C1"/>
<path d="M150.95 322.922C149.782 323.658 148.232 322.958 147.029 321.106C145.826 319.253 144.35 318.322 144.85 317.972C150.988 313.671 155.85 310.822 158.028 314.176C160.207 317.531 156.45 319.458 150.95 322.922Z" fill="#C2FF73"/>
<ellipse rx="4" ry="2.5" transform="matrix(0.866025 0.5 -0.511893 0.859049 147.921 320.41)" fill="#98E733"/>
<path d="M148.943 320.742C148.943 320.742 149.201 320.707 149.407 321.05C149.613 321.393 149.458 321.599 149.458 321.599L122.833 337.101L122.318 336.244L148.943 320.742Z" fill="#8E8E8E"/>
<ellipse rx="0.5" ry="0.238712" transform="matrix(0.515038 0.857167 -0.864187 0.503171 122.561 336.681)" fill="#C1C1C1"/>
<path d="M146.196 319.442C146.196 319.442 146.454 319.407 146.66 319.75C146.866 320.093 146.711 320.299 146.711 320.299L120.086 335.801L119.571 334.944L146.196 319.442Z" fill="#8E8E8E"/>
<ellipse rx="0.5" ry="0.238712" transform="matrix(0.515038 0.857167 -0.864187 0.503171 119.814 335.381)" fill="#C1C1C1"/>
<path d="M167.95 332.922C166.782 333.658 165.232 332.958 164.029 331.106C162.826 329.253 161.35 328.322 161.85 327.972C167.988 323.671 172.85 320.822 175.028 324.176C177.207 327.531 173.45 329.458 167.95 332.922Z" fill="#FFF576"/>
<ellipse rx="4" ry="2.5" transform="matrix(0.866025 0.5 -0.511893 0.859049 164.921 330.41)" fill="#FFE54D"/>
<path d="M165.943 330.742C165.943 330.742 166.201 330.707 166.407 331.05C166.613 331.393 166.458 331.599 166.458 331.599L139.833 347.101L139.318 346.244L165.943 330.742Z" fill="#8E8E8E"/>
<ellipse rx="0.5" ry="0.238712" transform="matrix(0.515038 0.857167 -0.864187 0.503171 139.561 346.681)" fill="#C1C1C1"/>
<path d="M163.196 329.442C163.196 329.442 163.454 329.407 163.66 329.75C163.866 330.093 163.711 330.299 163.711 330.299L137.086 345.801L136.571 344.944L163.196 329.442Z" fill="#8E8E8E"/>
<ellipse rx="0.5" ry="0.238712" transform="matrix(0.515038 0.857167 -0.864187 0.503171 136.814 345.381)" fill="#C1C1C1"/>
<path d="M183.951 282.922C182.783 283.658 181.232 282.958 180.029 281.106C178.826 279.253 177.35 278.322 177.85 277.972C183.988 273.671 188.85 270.822 191.029 274.176C193.207 277.531 189.45 279.458 183.951 282.922Z" fill="#FF8885"/>
<ellipse rx="4" ry="2.5" transform="matrix(0.866025 0.5 -0.511893 0.859049 180.921 280.41)" fill="#FF6666"/>
<path d="M181.944 280.742C181.944 280.742 182.202 280.707 182.408 281.05C182.614 281.393 182.459 281.599 182.459 281.599L155.834 297.101L155.319 296.244L181.944 280.742Z" fill="#8E8E8E"/>
<ellipse rx="0.5" ry="0.238712" transform="matrix(0.515038 0.857167 -0.864187 0.503171 155.562 296.681)" fill="#C1C1C1"/>
<path d="M179.196 279.442C179.196 279.442 179.454 279.407 179.66 279.75C179.866 280.093 179.711 280.299 179.711 280.299L153.087 295.801L152.572 294.944L179.196 279.442Z" fill="#8E8E8E"/>
<ellipse rx="0.5" ry="0.238712" transform="matrix(0.515038 0.857167 -0.864187 0.503171 152.814 295.381)" fill="#C1C1C1"/>
<path d="M200.95 292.922C199.782 293.658 198.232 292.958 197.029 291.106C195.826 289.253 194.35 288.322 194.85 287.972C200.988 283.671 205.85 280.822 208.028 284.176C210.207 287.531 206.45 289.458 200.95 292.922Z" fill="#C2FF73"/>
<ellipse rx="4" ry="2.5" transform="matrix(0.866025 0.5 -0.511893 0.859049 197.921 290.41)" fill="#98E733"/>
<path d="M198.943 290.742C198.943 290.742 199.201 290.707 199.407 291.05C199.613 291.393 199.458 291.599 199.458 291.599L172.833 307.101L172.318 306.244L198.943 290.742Z" fill="#8E8E8E"/>
<ellipse rx="0.5" ry="0.238712" transform="matrix(0.515038 0.857167 -0.864187 0.503171 172.561 306.681)" fill="#C1C1C1"/>
<path d="M196.196 289.442C196.196 289.442 196.454 289.407 196.66 289.75C196.866 290.093 196.711 290.299 196.711 290.299L170.086 305.801L169.571 304.944L196.196 289.442Z" fill="#8E8E8E"/>
<ellipse rx="0.5" ry="0.238712" transform="matrix(0.515038 0.857167 -0.864187 0.503171 169.814 305.381)" fill="#C1C1C1"/>
<path d="M217.95 302.922C216.782 303.658 215.232 302.958 214.029 301.106C212.826 299.253 211.35 298.322 211.85 297.972C217.988 293.671 222.85 290.822 225.028 294.176C227.207 297.531 223.45 299.458 217.95 302.922Z" fill="#FFF576"/>
<ellipse rx="4" ry="2.5" transform="matrix(0.866025 0.5 -0.511893 0.859049 214.921 300.41)" fill="#FFE54D"/>
<path d="M215.943 300.742C215.943 300.742 216.201 300.707 216.407 301.05C216.613 301.393 216.458 301.599 216.458 301.599L189.833 317.101L189.318 316.244L215.943 300.742Z" fill="#8E8E8E"/>
<ellipse rx="0.5" ry="0.238712" transform="matrix(0.515038 0.857167 -0.864187 0.503171 189.561 316.681)" fill="#C1C1C1"/>
<path d="M213.196 299.442C213.196 299.442 213.454 299.407 213.66 299.75C213.866 300.093 213.711 300.299 213.711 300.299L187.086 315.801L186.571 314.944L213.196 299.442Z" fill="#8E8E8E"/>
<ellipse rx="0.5" ry="0.238712" transform="matrix(0.515038 0.857167 -0.864187 0.503171 186.814 315.381)" fill="#C1C1C1"/>
<path d="M233.951 252.922C232.783 253.658 231.232 252.958 230.029 251.106C228.826 249.253 227.35 248.322 227.85 247.972C233.988 243.671 238.85 240.822 241.029 244.176C243.207 247.531 239.45 249.458 233.951 252.922Z" fill="#FF8885"/>
<ellipse rx="4" ry="2.5" transform="matrix(0.866025 0.5 -0.511893 0.859049 230.921 250.41)" fill="#FF6666"/>
<path d="M231.944 250.742C231.944 250.742 232.202 250.707 232.408 251.05C232.614 251.393 232.459 251.599 232.459 251.599L205.834 267.101L205.319 266.244L231.944 250.742Z" fill="#8E8E8E"/>
<ellipse rx="0.5" ry="0.238712" transform="matrix(0.515038 0.857167 -0.864187 0.503171 205.562 266.681)" fill="#C1C1C1"/>
<path d="M229.196 249.442C229.196 249.442 229.454 249.407 229.66 249.75C229.866 250.093 229.711 250.299 229.711 250.299L203.087 265.801L202.572 264.944L229.196 249.442Z" fill="#8E8E8E"/>
<ellipse rx="0.5" ry="0.238712" transform="matrix(0.515038 0.857167 -0.864187 0.503171 202.814 265.381)" fill="#C1C1C1"/>
<path d="M250.95 262.922C249.782 263.658 248.232 262.958 247.029 261.106C245.826 259.253 244.35 258.322 244.85 257.972C250.988 253.671 255.85 250.822 258.028 254.176C260.207 257.531 256.45 259.458 250.95 262.922Z" fill="#C2FF73"/>
<ellipse rx="4" ry="2.5" transform="matrix(0.866025 0.5 -0.511893 0.859049 247.921 260.41)" fill="#98E733"/>
<path d="M248.943 260.742C248.943 260.742 249.201 260.707 249.407 261.05C249.613 261.393 249.458 261.599 249.458 261.599L222.833 277.101L222.318 276.244L248.943 260.742Z" fill="#8E8E8E"/>
<ellipse rx="0.5" ry="0.238712" transform="matrix(0.515038 0.857167 -0.864187 0.503171 222.561 276.681)" fill="#C1C1C1"/>
<path d="M246.196 259.442C246.196 259.442 246.454 259.407 246.66 259.75C246.866 260.093 246.711 260.299 246.711 260.299L220.086 275.801L219.571 274.944L246.196 259.442Z" fill="#8E8E8E"/>
<ellipse rx="0.5" ry="0.238712" transform="matrix(0.515038 0.857167 -0.864187 0.503171 219.814 275.381)" fill="#C1C1C1"/>
<path d="M267.95 272.922C266.782 273.658 265.232 272.958 264.029 271.106C262.826 269.253 261.35 268.322 261.85 267.972C267.988 263.671 272.85 260.822 275.028 264.176C277.207 267.531 273.45 269.458 267.95 272.922Z" fill="#FFF576"/>
<ellipse rx="4" ry="2.5" transform="matrix(0.866025 0.5 -0.511893 0.859049 264.921 270.41)" fill="#FFE54D"/>
<path d="M265.943 270.742C265.943 270.742 266.201 270.707 266.407 271.05C266.613 271.393 266.458 271.599 266.458 271.599L239.833 287.101L239.318 286.244L265.943 270.742Z" fill="#8E8E8E"/>
<ellipse rx="0.5" ry="0.238712" transform="matrix(0.515038 0.857167 -0.864187 0.503171 239.561 286.681)" fill="#C1C1C1"/>
<path d="M263.196 269.442C263.196 269.442 263.454 269.407 263.66 269.75C263.866 270.093 263.711 270.299 263.711 270.299L237.086 285.801L236.571 284.944L263.196 269.442Z" fill="#8E8E8E"/>
<ellipse rx="0.5" ry="0.238712" transform="matrix(0.515038 0.857167 -0.864187 0.503171 236.814 285.381)" fill="#C1C1C1"/>
<path d="M281.951 222.922C280.783 223.658 279.233 222.958 278.03 221.106C276.826 219.253 275.351 218.322 275.85 217.972C281.989 213.671 286.85 210.822 289.029 214.176C291.207 217.531 287.451 219.458 281.951 222.922Z" fill="#FF8885"/>
<ellipse rx="4" ry="2.5" transform="matrix(0.866025 0.5 -0.511893 0.859049 278.922 220.41)" fill="#FF6666"/>
<path d="M279.944 220.742C279.944 220.742 280.202 220.707 280.408 221.05C280.614 221.393 280.459 221.599 280.459 221.599L253.834 237.101L253.319 236.244L279.944 220.742Z" fill="#8E8E8E"/>
<ellipse rx="0.5" ry="0.238712" transform="matrix(0.515038 0.857167 -0.864187 0.503171 253.562 236.681)" fill="#C1C1C1"/>
<path d="M277.196 219.442C277.196 219.442 277.454 219.407 277.66 219.75C277.866 220.093 277.711 220.299 277.711 220.299L251.087 235.801L250.572 234.944L277.196 219.442Z" fill="#8E8E8E"/>
<ellipse rx="0.5" ry="0.238712" transform="matrix(0.515038 0.857167 -0.864187 0.503171 250.814 235.381)" fill="#C1C1C1"/>
<path d="M298.95 232.922C297.782 233.658 296.232 232.958 295.029 231.106C293.826 229.253 292.35 228.322 292.85 227.972C298.988 223.671 303.85 220.822 306.028 224.176C308.207 227.531 304.45 229.458 298.95 232.922Z" fill="#C2FF73"/>
<ellipse rx="4" ry="2.5" transform="matrix(0.866025 0.5 -0.511893 0.859049 295.921 230.41)" fill="#98E733"/>
<path d="M296.944 230.742C296.944 230.742 297.201 230.707 297.407 231.05C297.613 231.393 297.459 231.599 297.459 231.599L270.834 247.101L270.319 246.244L296.944 230.742Z" fill="#8E8E8E"/>
<ellipse rx="0.5" ry="0.238712" transform="matrix(0.515038 0.857167 -0.864187 0.503171 270.561 246.681)" fill="#C1C1C1"/>
<path d="M294.196 229.442C294.196 229.442 294.454 229.407 294.66 229.75C294.866 230.093 294.711 230.299 294.711 230.299L268.086 245.801L267.571 244.944L294.196 229.442Z" fill="#8E8E8E"/>
<ellipse rx="0.5" ry="0.238712" transform="matrix(0.515038 0.857167 -0.864187 0.503171 267.814 245.381)" fill="#C1C1C1"/>
<path d="M315.95 242.922C314.782 243.658 313.232 242.958 312.029 241.106C310.826 239.253 309.35 238.322 309.85 237.972C315.988 233.671 320.85 230.822 323.028 234.176C325.207 237.531 321.45 239.458 315.95 242.922Z" fill="#FFF576"/>
<ellipse rx="4" ry="2.5" transform="matrix(0.866025 0.5 -0.511893 0.859049 312.921 240.41)" fill="#FFE54D"/>
<path d="M313.944 240.742C313.944 240.742 314.201 240.707 314.407 241.05C314.613 241.393 314.459 241.599 314.459 241.599L287.834 257.101L287.319 256.244L313.944 240.742Z" fill="#8E8E8E"/>
<ellipse rx="0.5" ry="0.238712" transform="matrix(0.515038 0.857167 -0.864187 0.503171 287.561 256.681)" fill="#C1C1C1"/>
<path d="M311.196 239.442C311.196 239.442 311.454 239.407 311.66 239.75C311.866 240.093 311.711 240.299 311.711 240.299L285.086 255.801L284.571 254.944L311.196 239.442Z" fill="#8E8E8E"/>
<ellipse rx="0.5" ry="0.238712" transform="matrix(0.515038 0.857167 -0.864187 0.503171 284.814 255.381)" fill="#C1C1C1"/>
<path d="M336.002 277.558V183.625C336.002 185.625 335.591 186.779 332.175 188.916C330.047 190.246 309.537 202.299 263.402 228.578C258.502 231.37 253.002 231.625 250.002 231.625C249.752 231.625 249.49 231.627 249.217 231.629C246.205 231.649 241.839 231.678 238.002 229.475L229.002 244.505C229.002 244.505 229.002 244.505 235.502 248.125V304.125L239.002 306.125L98.3405 387.157C97.6235 387.334 96.81 387.651 95.8888 388.125C90.0124 391.151 88.5151 395.922 88.5151 400.95C88.5151 405.977 91.9518 407.877 95.6719 405.789L238.57 322.999C252.307 328.193 264.919 321.101 264.919 321.101C264.919 321.101 291.793 304.577 314.6 292.201C337.406 279.826 336.002 277.558 336.002 277.558Z" fill="url(#paint12_linear)"/>
<path fill-rule="evenodd" clip-rule="evenodd" d="M277.002 313.27L302.883 328.232V284.974L292.31 278.714L277.002 238.946V313.27Z" fill="#B7B5BD"/>
<path fill-rule="evenodd" clip-rule="evenodd" d="M302.883 328.232L342.151 306V263.054L302.883 285.286V328.232Z" fill="#F1F1F1"/>
<path fill-rule="evenodd" clip-rule="evenodd" d="M331.642 256.117L316.427 216.625L277.002 238.863L292.26 278.354L302.883 285.375L342.151 263.114L331.642 256.117Z" fill="url(#paint13_linear)"/>
<path fill-rule="evenodd" clip-rule="evenodd" d="M282.356 243.338L316.456 223.768L327.872 253.814L293.536 272.875L282.356 243.338Z" fill="url(#paint14_linear)" fill-opacity="0.64"/>
<path fill-rule="evenodd" clip-rule="evenodd" d="M284.142 244.231L318.241 224.66L329.657 254.707L295.321 273.767L284.142 244.231Z" fill="url(#paint15_linear)" fill-opacity="0.64"/>
<path d="M292.173 263.947L293.819 255.5L297.235 256.298L297.893 247.572L304.119 252.414L305.227 249.885L311.324 252.414L310.788 241.515C310.788 241.515 315.084 244.463 315.084 243.639C315.084 242.815 314.315 234.482 314.315 234.482L325.194 247.676V243.639" stroke="white"/>
<path fill-rule="evenodd" clip-rule="evenodd" d="M296.636 271.982L298.281 263.535L301.698 264.334L302.355 255.607L308.581 260.449L309.69 257.92L315.786 260.449L315.251 249.551C315.251 249.551 319.547 252.498 319.547 251.674C319.547 250.85 318.777 242.518 318.777 242.518L329.656 253.926" fill="#C3C4EB" fill-opacity="0.854021"/>
</g>
<path fill-rule="evenodd" clip-rule="evenodd" d="M265.391 142.202C255.944 136.763 244.299 136.763 234.852 142.202L166.689 181.451C163.106 183.515 163.106 188.663 166.689 190.726L234.852 229.976C244.299 235.415 255.944 235.415 265.391 229.976L332.002 191.625C335.502 189.625 336.002 188.625 336.002 185.125C336.002 183.625 335.237 182.421 333.554 181.451L265.391 142.202Z" fill="url(#paint16_linear)"/>
<path fill-rule="evenodd" clip-rule="evenodd" d="M194.002 184.625L250.002 217.125L306.002 184.625V174.625L250.002 142.125L194.002 174.625V184.625Z" fill="url(#paint17_linear)"/>
<path fill-rule="evenodd" clip-rule="evenodd" d="M194.002 81.625V174.625L250.002 207.125L306.002 174.625V81.625H194.002Z" fill="url(#paint18_linear)"/>
<path fill-rule="evenodd" clip-rule="evenodd" d="M194.002 169.625L250.002 137.125L306.002 169.625L250.002 202.125L194.002 169.625Z" fill="url(#paint19_linear)"/>
<defs>
<filter id="filter0_d" x="0" y="-0.000488281" width="354.151" height="422.625" filterUnits="userSpaceOnUse" color-interpolation-filters="sRGB">
<feFlood flood-opacity="0" result="BackgroundImageFix"/>
<feColorMatrix in="SourceAlpha" type="matrix" values="0 0 0 0 0 0 0 0 0 0 0 0 0 0 0 0 0 0 127 0"/>
<feOffset dy="4"/>
<feGaussianBlur stdDeviation="6"/>
<feColorMatrix type="matrix" values="0 0 0 0 0 0 0 0 0 0 0 0 0 0 0 0 0 0 0.25 0"/>
<feBlend mode="normal" in2="BackgroundImageFix" result="effect1_dropShadow"/>
<feBlend mode="normal" in="SourceGraphic" in2="effect1_dropShadow" result="shape"/>
</filter>
<linearGradient id="paint0_linear" x1="144.315" y1="233.105" x2="134.56" y2="213.29" gradientUnits="userSpaceOnUse">
<stop stop-color="white"/>
<stop offset="1" stop-color="white"/>
</linearGradient>
<linearGradient id="paint1_linear" x1="86.0782" y1="232.18" x2="97.1407" y2="212.843" gradientUnits="userSpaceOnUse">
<stop stop-color="white"/>
<stop offset="1" stop-color="white"/>
</linearGradient>
<linearGradient id="paint2_linear" x1="65.0018" y1="194.452" x2="173.003" y2="194.452" gradientUnits="userSpaceOnUse">
<stop stop-color="#EBA251"/>
<stop offset="1" stop-color="#FF971C"/>
</linearGradient>
<linearGradient id="paint3_linear" x1="91.1877" y1="175.143" x2="119.205" y2="223.952" gradientUnits="userSpaceOnUse">
<stop stop-color="#FFC585"/>
<stop offset="0.943867" stop-color="#FDAC4E"/>
<stop offset="1" stop-color="#FDAC4E"/>
</linearGradient>
<linearGradient id="paint4_linear" x1="12.0024" y1="186.339" x2="226.002" y2="186.339" gradientUnits="userSpaceOnUse">
<stop stop-color="#EFF6FF"/>
<stop offset="0.970894" stop-color="#FCFBFB"/>
<stop offset="1" stop-color="#FCFBFB"/>
</linearGradient>
<linearGradient id="paint5_linear" x1="54.002" y1="69.1988" x2="183.002" y2="69.1988" gradientUnits="userSpaceOnUse">
<stop stop-color="#FF4061"/>
<stop offset="0.00470773" stop-color="#FF4061"/>
<stop offset="1" stop-color="#FF9749"/>
</linearGradient>
<linearGradient id="paint6_linear" x1="54.002" y1="65.6348" x2="183.002" y2="65.6348" gradientUnits="userSpaceOnUse">
<stop stop-color="#FF6161"/>
<stop offset="0.00470773" stop-color="#FF6161"/>
<stop offset="1" stop-color="#FFAE49"/>
</linearGradient>
<linearGradient id="paint7_linear" x1="54.002" y1="57.6148" x2="183.002" y2="57.6148" gradientUnits="userSpaceOnUse">
<stop stop-color="#FF4061"/>
<stop offset="0.00470773" stop-color="#FF4061"/>
<stop offset="1" stop-color="#FF9749"/>
</linearGradient>
<linearGradient id="paint8_linear" x1="54.002" y1="54.0508" x2="183.002" y2="54.0508" gradientUnits="userSpaceOnUse">
<stop stop-color="#FF6161"/>
<stop offset="0.00470773" stop-color="#FF6161"/>
<stop offset="1" stop-color="#FFAE49"/>
</linearGradient>
<linearGradient id="paint9_linear" x1="266.833" y1="191.723" x2="210.494" y2="286.649" gradientUnits="userSpaceOnUse">
<stop stop-color="#DBD8E6"/>
<stop offset="1" stop-color="#E3E3E3"/>
</linearGradient>
<linearGradient id="paint10_linear" x1="171.436" y1="281.894" x2="232.328" y2="287.414" gradientUnits="userSpaceOnUse">
<stop stop-color="#CCCCCC"/>
<stop offset="1" stop-color="#9C9C9C"/>
</linearGradient>
<linearGradient id="paint11_linear" x1="238.002" y1="247.625" x2="218.413" y2="293.738" gradientUnits="userSpaceOnUse">
<stop stop-color="#ECECEC"/>
<stop offset="1" stop-color="white"/>
</linearGradient>
<linearGradient id="paint12_linear" x1="266.833" y1="191.723" x2="210.494" y2="286.649" gradientUnits="userSpaceOnUse">
<stop stop-color="#DBD8E6"/>
<stop offset="1" stop-color="#E3E3E3"/>
</linearGradient>
<linearGradient id="paint13_linear" x1="277.002" y1="216.625" x2="277.002" y2="285.375" gradientUnits="userSpaceOnUse">
<stop stop-color="white"/>
<stop offset="1" stop-color="white"/>
</linearGradient>
<linearGradient id="paint14_linear" x1="282.356" y1="223.768" x2="282.356" y2="272.875" gradientUnits="userSpaceOnUse">
<stop stop-color="#4198B2"/>
<stop offset="1" stop-color="#4096B3"/>
</linearGradient>
<linearGradient id="paint15_linear" x1="288.407" y1="240.075" x2="303.829" y2="271.14" gradientUnits="userSpaceOnUse">
<stop stop-color="white"/>
<stop offset="1" stop-color="#F0959A"/>
</linearGradient>
<linearGradient id="paint16_linear" x1="282.275" y1="140.92" x2="260.779" y2="248.76" gradientUnits="userSpaceOnUse">
<stop stop-color="#F9F9F9"/>
<stop offset="1" stop-color="white"/>
</linearGradient>
<linearGradient id="paint17_linear" x1="194.002" y1="219.399" x2="306.002" y2="219.399" gradientUnits="userSpaceOnUse">
<stop stop-color="#FF6161"/>
<stop offset="1" stop-color="#F1D0A0"/>
</linearGradient>
<linearGradient id="paint18_linear" x1="175.408" y1="81.625" x2="175.408" y2="245.75" gradientUnits="userSpaceOnUse">
<stop stop-color="white" stop-opacity="0.01"/>
<stop offset="0.351582" stop-color="#D4E6F0" stop-opacity="0.213822"/>
<stop offset="1" stop-color="#355CB9"/>
</linearGradient>
<linearGradient id="paint19_linear" x1="194.502" y1="141.446" x2="194.502" y2="200.375" gradientUnits="userSpaceOnUse">
<stop stop-color="#383757" stop-opacity="0.12"/>
<stop offset="1" stop-color="#3D39FF" stop-opacity="0.522946"/>
</linearGradient>
</defs>
</svg>
